<svg width="653" height="773" viewBox="0 0 653 773" fill="none" xmlns="http://www.w3.org/2000/svg">
<g clip-path="url(#clip0_378_3186)">
<path d="M45.7106 535.832C57.0153 535.832 68.5659 538.395 79.7887 539.649C83.2839 540.031 86.8064 540.086 90.3016 540.631C93.7968 541.176 97.8381 542.485 101.606 543.358C106.167 544.46 110.82 545.145 115.505 545.403C119.389 545.234 123.213 544.395 126.81 542.922C135.166 540.304 143.421 537.377 151.577 534.141C167.784 527.643 183.53 520.053 198.707 511.425C229.102 493.9 257.765 473.538 284.312 450.612C294.47 441.995 304.418 433.15 314.158 424.078C391.653 352.112 480.152 160.185 483.675 152.522C483.675 152.522 482.063 144.205 482.009 144.341C478.623 146.468 402.302 187.973 384.58 197.654C384.098 197.918 383.568 198.082 383.021 198.137C382.474 198.192 381.922 198.136 381.397 197.973C380.872 197.81 380.386 197.544 379.966 197.189C379.547 196.834 379.203 196.399 378.955 195.909C375.783 190.233 373.045 184.326 370.763 178.238C370.6 177.556 371.583 178.374 371.801 177.692C372.07 177.1 372.472 176.578 372.975 176.165C380.87 169.057 389.545 162.864 398.834 157.703C406.116 153.395 413.57 149.304 421.198 145.432C424.607 143.83 427.755 141.725 430.537 139.187L440.039 130.515C452.782 118.989 465.48 107.481 478.131 95.991C501.505 74.7748 524.552 53.3677 547.052 31.088C551.148 27.0247 555.736 22.6888 563.245 26.3975C567.142 28.389 570.151 31.7646 571.682 35.8603C572.25 38.3154 573.17 40.6758 574.413 42.8687C575.423 45.4321 576.434 47.9955 577.471 50.5862L603.521 116.553L617.011 150.531L623.346 166.566C625.137 171.846 627.375 176.964 630.036 181.865C630.827 182.936 631.231 184.243 631.183 185.574C631.319 189.738 631.237 193.907 630.937 198.063C630.915 199.65 630.61 201.22 630.036 202.699C629.738 203.435 629.264 204.086 628.654 204.595C628.044 205.104 627.318 205.455 626.541 205.617C622.882 206.162 618.949 203.19 616.328 201.036L608.327 194.464L590.496 179.901L561.579 156.149H561.415C561.415 162.148 558.029 333.405 514.23 437.85C505.598 458.505 495.816 478.662 484.931 498.226C448.971 563.285 400.439 620.568 342.147 666.756C319.981 684.324 296.211 699.772 271.15 712.897C260.911 718.187 250.316 722.332 239.885 727.104C235.352 729.177 228.962 732.967 226.232 726.532C222.988 718.844 220.528 710.85 218.886 702.67C218.75 701.934 219.46 701.716 219.651 701.007C219.886 700.354 220.258 699.759 220.743 699.262C222.846 696.753 225.167 694.353 227.024 691.681C229.343 688.525 231.073 684.978 232.13 681.209C232.942 676.711 233.29 672.142 233.168 667.574C233.632 657.838 233.823 648.076 233.796 638.313C233.796 626.914 233.432 615.524 232.703 604.143C232.13 594.79 232.703 592.09 223.61 593.644C191.72 599.291 159.068 599.097 127.247 593.072C109.172 589.09 91.604 583.089 74.8736 575.182C69.0766 572.815 63.5778 569.776 58.4899 566.129C55.732 563.974 46.4205 541.586 45.7106 535.832Z" fill="#FF9100"/>
<path d="M622.226 187.782L553.36 131.251C553.36 137.278 549.946 308.507 506.175 412.979C497.533 433.626 487.742 453.774 476.848 473.328C440.899 538.394 392.376 595.686 334.091 641.885C311.916 659.44 288.147 674.887 263.095 688.026C252.883 693.317 242.26 697.462 231.829 702.234C227.542 704.17 221.726 708.397 219.35 702.998C217.548 698.934 221.535 686.39 222.081 681.727C223.428 669.855 224.402 657.965 225.003 646.057C225.567 635.149 225.831 624.241 225.795 613.333C225.795 601.916 225.431 590.517 224.703 579.137C224.703 577.855 224.566 576.682 224.511 575.646C224.129 569.156 223.528 567.301 215.61 568.638H215.418C126.428 583.582 43.1984 546.14 45.6013 533.568C45.6776 533.078 45.8643 532.612 46.1474 532.205C48.3592 528.687 65.2617 529.478 69.7946 528.932C78.4506 527.678 87.1067 526.042 95.6535 524.078C177.217 505.289 245.838 454.975 306.075 398.99C383.597 327.024 472.069 135.124 475.592 127.433C471.742 129.833 420.133 162.094 378.272 181.101C377.112 181.605 375.812 181.691 374.595 181.344C373.378 180.997 372.319 180.239 371.6 179.199C370.881 178.158 370.546 176.901 370.652 175.641C370.758 174.382 371.3 173.198 372.183 172.293L539.133 5.94487C542.71 2.37248 546.67 -1.41805 552.786 0.218164C553.729 0.459048 554.644 0.797186 555.517 1.22715C559.431 3.23073 562.451 6.62644 563.982 10.7444L631.373 181.401C632.221 182.613 632.551 184.111 632.293 185.566C632.034 187.021 631.208 188.313 629.995 189.159C628.782 190.006 627.282 190.336 625.825 190.078C624.368 189.819 623.073 188.994 622.226 187.782Z" fill="#FFB200"/>
<g style="mix-blend-mode:multiply" opacity="0.28">
<path d="M622.226 187.782L553.36 131.251C553.36 137.278 549.946 308.507 506.175 412.979C497.533 433.626 487.742 453.774 476.848 473.328C440.899 538.394 392.376 595.686 334.091 641.885C311.916 659.44 288.147 674.887 263.095 688.026C252.883 693.317 242.26 697.462 231.829 702.234C227.542 704.17 221.726 708.397 219.35 702.998C217.548 698.934 221.535 686.39 222.081 681.727C223.428 669.855 224.402 657.965 225.003 646.057C225.567 635.149 225.831 624.241 225.795 613.333C225.795 601.916 225.431 590.517 224.703 579.137C224.703 577.855 224.566 576.682 224.511 575.646C331.934 521.106 407.927 411.125 459.618 300.708C520.019 171.584 547.189 41.9688 552.459 0.21817C553.401 0.459055 554.317 0.797192 555.189 1.22715C559.103 3.23074 562.124 6.62645 563.654 10.7445L631.046 181.401C631.767 182.573 632.018 183.973 631.75 185.321C631.481 186.67 630.713 187.868 629.598 188.674C628.483 189.481 627.103 189.838 625.737 189.672C624.37 189.507 623.116 188.832 622.226 187.782Z" fill="#FFB200"/>
</g>
<path d="M357.602 33.9786H296.026C286.54 33.9786 278.851 41.6582 278.851 51.1315V94.8729C278.851 104.346 286.54 112.026 296.026 112.026H357.602C367.088 112.026 374.777 104.346 374.777 94.8729V51.1315C374.777 41.6582 367.088 33.9786 357.602 33.9786Z" fill="#0090C6"/>
<path d="M334.173 108.89L344.713 124.816C344.907 125.1 345.17 125.33 345.479 125.482C345.788 125.634 346.13 125.704 346.474 125.685C346.818 125.666 347.151 125.558 347.44 125.372C347.73 125.186 347.966 124.929 348.126 124.625C350.748 119.24 352.921 113.649 354.625 107.908" fill="#0090C6"/>
<g style="mix-blend-mode:multiply" opacity="0.28">
<g style="mix-blend-mode:multiply" opacity="0.28">
<path d="M441.841 342.622C436.052 357.948 445.227 374.665 445.309 391.027C445.309 406.871 436.653 425.415 427.451 437.986C393.7 484.154 341.655 520.451 287.752 538.886C281.574 540.671 275.591 543.074 269.894 546.058C254.548 555.084 247.503 573.191 241.496 589.935C237.236 601.898 232.967 613.851 228.689 625.796C228.061 627.541 227.379 628.768 225.604 628.523C225.344 623.481 225.344 618.429 225.604 613.388C225.604 601.971 225.24 590.572 224.511 579.191C224.511 577.909 224.375 576.737 224.32 575.7C223.938 569.21 223.337 567.356 215.418 568.692H215.227C237.678 518.13 269.135 472.06 308.068 432.723L313.011 428.36L360.551 340.604C368.19 325.563 376.991 311.139 386.874 297.463C397.578 283.392 409.374 271.365 427.833 270.465C436.926 270.029 446.947 271.883 452.736 278.919C454.635 281.37 456.077 284.141 456.996 287.1C459.055 293.18 459.791 299.628 459.156 306.014C458.52 312.4 456.527 318.578 453.31 324.133C449.624 330.514 444.408 335.968 441.841 342.622Z" fill="#494949"/>
</g>
</g>
<path d="M314.376 75.102C314.382 76.4947 313.973 77.8577 313.202 79.0183C312.431 80.1789 311.333 81.0849 310.046 81.6216C308.759 82.1583 307.342 82.3015 305.974 82.0331C304.605 81.7647 303.347 81.0968 302.359 80.1139C301.371 79.1311 300.698 77.8775 300.424 76.512C300.149 75.1464 300.287 73.7304 300.82 72.4432C301.352 71.156 302.255 70.0555 303.414 69.2812C304.573 68.5069 305.937 68.0936 307.331 68.0936C309.195 68.0936 310.983 68.8311 312.303 70.1446C313.623 71.4582 314.369 73.2408 314.376 75.102Z" fill="#FEFEFE"/>
<path d="M326.8 82.1377C330.676 82.1377 333.818 78.9999 333.818 75.1293C333.818 71.2586 330.676 68.1208 326.8 68.1208C322.925 68.1208 319.783 71.2586 319.783 75.1293C319.783 78.9999 322.925 82.1377 326.8 82.1377Z" fill="#FEFEFE"/>
<path d="M353.315 75.102C353.32 76.4947 352.911 77.8577 352.141 79.0183C351.37 80.1789 350.271 81.0849 348.985 81.6216C347.698 82.1583 346.28 82.3015 344.912 82.0331C343.544 81.7647 342.286 81.0968 341.298 80.1139C340.31 79.1311 339.636 77.8775 339.362 76.512C339.088 75.1464 339.226 73.7304 339.758 72.4432C340.291 71.156 341.194 70.0555 342.353 69.2812C343.512 68.5069 344.875 68.0936 346.27 68.0936C348.133 68.0936 349.921 68.8311 351.242 70.1446C352.562 71.4582 353.307 73.2408 353.315 75.102Z" fill="#FEFEFE"/>
<path d="M572.774 429.151C617.082 429.151 653 394.855 653 352.549C653 310.243 617.082 275.947 572.774 275.947C528.467 275.947 492.549 310.243 492.549 352.549C492.549 394.855 528.467 429.151 572.774 429.151Z" fill="#F24B57"/>
<path d="M572.774 411.807C607.053 411.807 634.841 385.276 634.841 352.549C634.841 319.821 607.053 293.291 572.774 293.291C538.496 293.291 510.708 319.821 510.708 352.549C510.708 385.276 538.496 411.807 572.774 411.807Z" fill="#FEFEFE"/>
<path d="M572.774 394.19C596.873 394.19 616.41 375.547 616.41 352.549C616.41 329.551 596.873 310.907 572.774 310.907C548.675 310.907 529.139 329.551 529.139 352.549C529.139 375.547 548.675 394.19 572.774 394.19Z" fill="#F24B57"/>
<path d="M572.774 376.655C586.709 376.655 598.005 365.863 598.005 352.549C598.005 339.235 586.709 328.442 572.774 328.442C558.84 328.442 547.544 339.235 547.544 352.549C547.544 365.863 558.84 376.655 572.774 376.655Z" fill="#FEFEFE"/>
<path d="M572.775 364.657C579.772 364.657 585.445 359.236 585.445 352.549C585.445 345.862 579.772 340.441 572.775 340.441C565.777 340.441 560.104 345.862 560.104 352.549C560.104 359.236 565.777 364.657 572.775 364.657Z" fill="#F24B57"/>
<path d="M594.701 498.962C594.093 497.078 592.855 495.46 591.195 494.378C589.535 493.296 587.553 492.815 585.581 493.017C586.297 491.18 586.363 489.153 585.767 487.273C585.171 485.393 583.949 483.773 582.304 482.682C578.372 480.637 573.075 482.982 570.481 487.972C567.712 493.585 566.96 499.979 568.351 506.08C573.517 508.582 579.255 509.673 584.98 509.243C585.541 509.201 586.097 509.119 586.646 508.998C591.998 507.77 595.657 503.298 594.701 498.962Z" fill="#F24B57"/>
<path d="M215.692 91.8459C210.968 91.6278 206.817 95.5274 205.424 100.981C200.619 98.0635 194.912 98.2544 191.771 101.663C187.976 105.781 189.041 113.008 194.283 117.78C200.218 122.999 207.764 126.031 215.664 126.37C220.393 120.927 223.62 114.348 225.03 107.281C225.156 106.587 225.238 105.885 225.276 105.181C225.549 98.0362 221.262 92.0914 215.692 91.8459Z" fill="#F24B57"/>
<path d="M139.753 265.939C135.357 267.684 133.2 272.947 134.292 278.483C128.694 277.801 123.561 280.255 122.059 284.755C120.311 290.045 124.298 296.154 131.015 298.39C138.572 300.705 146.695 300.369 154.034 297.436C156.121 290.507 156.338 283.15 154.662 276.11C154.494 275.426 154.285 274.752 154.034 274.092C151.304 267.52 144.969 263.866 139.753 265.939Z" fill="#F24B57"/>
<path d="M176.371 320.697C174.595 320.964 172.966 321.834 171.757 323.16C170.549 324.486 169.835 326.188 169.735 327.978C168.188 327.077 166.378 326.735 164.609 327.008C162.839 327.281 161.217 328.153 160.014 329.478C157.611 332.696 158.949 337.659 163.018 340.768C167.633 344.045 173.23 345.652 178.883 345.322C181.849 341.057 183.655 336.095 184.126 330.923C184.153 330.424 184.153 329.923 184.126 329.424C183.853 324.379 180.357 320.452 176.371 320.697Z" fill="#F24B57"/>
<path d="M319.892 289.609C320.688 288.964 321.428 288.252 322.104 287.482C323.879 285.519 326.254 284.264 328.057 282.219C330.428 280.118 332.422 277.628 333.955 274.856C334.978 271.841 334.978 268.572 333.955 265.557C333.394 263.181 332.195 261.003 330.487 259.257C329.628 258.395 328.575 257.752 327.415 257.382C326.256 257.012 325.024 256.925 323.824 257.13C322.762 257.395 321.767 257.878 320.902 258.548C318.167 260.784 316.334 263.932 315.741 267.411C315.059 270.629 315.933 274.147 315.25 277.228C314.214 279.84 312.827 282.299 311.127 284.537" fill="#F4BE90"/>
<path d="M324.78 454.43L328.602 458.302C313.884 472.183 284.175 471.637 265.798 466.047C265.088 465.856 263.45 465.229 261.156 464.356C245.865 458.548 201.083 440.359 201.083 438.068C201.247 471.256 191.853 503.653 182.569 535.504C180.439 542.813 177.545 562.583 167.441 557.32C166.452 556.817 165.533 556.184 164.711 555.439C160.506 551.812 159.878 545.621 159.577 540.086C157.393 499.362 157.02 458.602 158.458 417.806C158.649 411.725 159.086 405.235 162.772 400.408C170.145 390.89 184.89 393.536 196.523 396.644C227.215 404.826 258.48 407.034 289.364 412.707C298.975 414.452 308.942 414.343 318.363 416.906C327.783 419.47 337.149 425.605 339.662 435.041C342.174 444.476 334.419 456.121 324.78 454.43Z" fill="#43496D"/>
<g style="mix-blend-mode:multiply" opacity="0.36">
<g style="mix-blend-mode:multiply" opacity="0.36">
<path d="M274.919 454.921C271.278 457.721 267.51 460.366 263.614 462.856C262.873 463.324 262.032 463.611 261.16 463.696C260.288 463.782 259.408 463.662 258.59 463.347C246.083 458.493 221.426 448.512 208.865 442.567C208.026 442.174 207.102 441.995 206.176 442.046C205.25 442.098 204.351 442.378 203.561 442.862C202.77 443.346 202.113 444.018 201.647 444.819C201.181 445.62 200.921 446.523 200.892 447.449C199.472 477.446 190.979 506.652 182.569 535.504C182.105 537.031 181.641 539.077 181.067 541.34C180.628 542.663 179.712 543.777 178.497 544.463C177.282 545.149 175.855 545.36 174.493 545.054C173.131 544.748 171.932 543.947 171.128 542.807C170.324 541.667 169.974 540.269 170.145 538.886C170.418 537.549 170.691 536.159 170.937 534.904C178.364 497.744 184.253 460.32 188.604 422.633C188.671 421.878 188.896 421.145 189.262 420.482C189.629 419.818 190.131 419.238 190.734 418.779C191.338 418.32 192.031 417.991 192.769 417.814C193.507 417.637 194.274 417.616 195.021 417.752C200.992 419.103 206.79 421.125 212.306 423.778C232.202 431.917 252.509 439.016 273.144 445.049C274.141 445.346 275.037 445.914 275.73 446.689C276.424 447.464 276.889 448.416 277.073 449.44C277.257 450.463 277.153 451.517 276.772 452.485C276.392 453.452 275.75 454.296 274.919 454.921Z" fill="#15233A"/>
</g>
</g>
<path d="M363.5 470.301C356.155 478.625 347.471 485.667 337.805 491.136C318.52 502.369 298.088 511.511 276.857 518.406C258.59 524.323 251.654 537.195 244.937 554.102C235.434 578.073 224.32 601.525 214.026 625.168C207.636 639.894 197.642 656.993 181.641 656.829C187.102 625.441 194.092 594.326 201.41 563.32C207.609 537.14 210.012 500.953 228.007 479.709C239.776 465.802 256.296 456.693 272.133 448.185C287.971 439.677 303.153 429.914 318.554 420.915C329.777 414.452 341.628 407.798 354.571 407.634C377.481 407.362 380.949 429.614 375.87 447.531C373.436 455.922 369.216 463.689 363.5 470.301Z" fill="#43496D"/>
<path d="M408.173 357.185C407.791 358.984 407.381 360.812 406.917 362.639C401.141 384.801 393.626 406.475 384.444 427.46C382.712 431.53 380.6 435.429 378.136 439.104C377.684 439.874 377.021 440.499 376.225 440.904C375.16 441.34 373.985 440.768 372.839 440.659C366.085 439.986 359.823 439.25 354.052 438.45C347.526 437.55 341.6 436.595 336.166 435.723C333.955 435.314 331.852 434.905 329.804 434.468C300.231 428.305 287.834 420.833 282.728 416.143L282.237 415.679C281.02 414.64 280.034 413.358 279.342 411.916C279.342 411.916 285.404 401.635 288.326 396.835C296.299 383.855 303.099 370.383 310.007 356.776C314.349 348.267 318.199 339.568 322.65 331.087C327.101 322.606 335.074 315.625 341.546 309.271C343.453 307.288 345.621 305.573 347.99 304.171C351.85 302.443 356.021 301.515 360.25 301.444C364.661 300.857 369.135 300.94 373.521 301.69C375.021 302.034 376.499 302.471 377.945 302.999C383.448 304.64 388.744 306.909 393.728 309.762C400.793 314.149 406.296 320.647 409.456 328.333C411.832 334.114 410.849 344.831 408.173 357.185Z" fill="#0090C6"/>
<g style="mix-blend-mode:multiply" opacity="0.28">
<g style="mix-blend-mode:multiply" opacity="0.28">
<path d="M408.173 357.185C407.791 358.984 407.381 360.812 406.917 362.639C401.141 384.801 393.627 406.475 384.444 427.46C382.712 431.53 380.6 435.429 378.136 439.104C377.685 439.874 377.021 440.499 376.225 440.904C375.16 441.34 373.986 440.768 372.839 440.659C366.085 439.986 359.823 439.25 354.052 438.45C393.892 399.917 385.7 381.755 408.173 357.185Z" fill="#0090C6"/>
</g>
</g>
<path d="M354.571 329.396C355.24 328.968 355.778 328.364 356.127 327.651C356.36 326.688 356.244 325.674 355.8 324.788C353.752 319.334 365.958 300.817 360.114 301.253C338.651 302.862 318.964 315.788 303.235 329.451C310.037 321.073 315.214 311.501 318.499 301.226C319.804 296.523 321.56 291.957 323.742 287.591C326.172 283.473 322.705 281.783 319.346 279.41C318.729 278.947 318.036 278.597 317.298 278.374C313.257 277.31 306.539 283.828 303.645 286.255C299.405 289.726 295.493 293.578 291.958 297.763C284.997 306.027 279.661 315.529 276.229 325.769C273.28 334.578 268.857 349.167 279.588 354.103C282.95 355.494 286.575 356.136 290.21 355.985C294.617 355.999 299.012 355.532 303.317 354.594C306.539 353.885 309.707 352.93 312.874 351.867L320.575 349.522C323.94 348.573 327.234 347.388 330.432 345.977C334.93 343.743 339.154 340.998 343.02 337.796C346.707 334.932 350.775 332.287 354.571 329.396Z" fill="#0090C6"/>
<path d="M400.582 314.834C399.973 318.692 399.162 322.515 398.151 326.288C396.431 330.814 394.028 335.232 391.98 339.65C389.77 344.421 388.695 349.639 388.84 354.894C389.452 358.352 390.46 361.728 391.844 364.957C392.936 368.556 394.001 372.183 395.011 375.865C397.251 386.443 396.446 397.439 392.69 407.58C386.817 422.719 379.721 437.357 371.473 451.348C370.046 453.502 368.968 455.867 368.278 458.357C366.613 466.211 373.357 465.911 378.3 462.666C386.952 456.706 394.854 449.73 401.838 441.886C411.411 431.918 419.222 420.401 424.939 407.825C427.652 402.277 429.494 396.344 430.4 390.236C435.697 337.85 405.197 319.225 400.582 314.834Z" fill="#0090C6"/>
<path d="M400.582 285.873C397.327 294.161 394.493 302.607 392.089 311.18C388.458 324.079 368.36 318.57 371.992 305.726C372.511 303.844 373.057 302.017 373.63 300.272C373.63 300.026 373.767 299.754 373.849 299.508C374.941 296.045 376.061 292.636 377.289 289.227L377.562 288.464C378.491 285.737 379.474 283.173 380.512 280.555C381.295 277.927 383.064 275.702 385.45 274.345C387.836 272.989 390.655 272.605 393.318 273.274C398.343 274.447 402.63 280.637 400.582 285.873Z" fill="#F4BE90"/>
<g style="mix-blend-mode:multiply">
<g style="mix-blend-mode:multiply">
<path d="M394.137 288.464C391.482 293.353 387.011 297.006 381.686 298.635C379.076 299.466 376.367 299.943 373.63 300.054C373.63 299.808 373.767 299.535 373.849 299.29C374.941 295.827 376.061 292.418 377.29 289.009C380.896 289.719 384.606 289.719 388.212 289.009C390.152 288.555 392.147 288.371 394.137 288.464Z" fill="#F4BE90"/>
</g>
</g>
<path d="M177.872 564.847C178.178 564.629 178.453 564.372 178.692 564.083C180.059 561.888 180.601 559.278 180.221 556.72C180.139 552.733 180.303 548.744 180.712 544.776C180.903 542.731 182.951 537.359 179.538 537.386H161.134C160.945 537.344 160.749 537.344 160.56 537.386C160.403 537.509 160.277 537.666 160.192 537.846C160.107 538.026 160.065 538.223 160.069 538.422C159.942 540.31 159.47 542.158 158.676 543.876C156.981 545.431 154.823 546.388 152.532 546.603C149.986 547.008 147.409 547.181 144.832 547.121C138.333 547.121 131.834 547.667 125.335 548.103C122.582 548.042 119.863 548.73 117.471 550.094C116.673 550.485 115.995 551.082 115.505 551.823C115.015 552.563 114.732 553.421 114.684 554.307C114.637 555.194 114.827 556.077 115.236 556.865C115.644 557.654 116.255 558.319 117.007 558.793C121.786 562.42 129.076 563.02 134.838 563.62C141.364 564.247 147.918 564.574 154.444 564.983L167.442 565.72C170.527 566.265 175.169 566.919 177.872 564.847Z" fill="#252935"/>
<path d="M204.059 658.411C204.35 658.175 204.615 657.91 204.851 657.62C207.336 654.647 207.09 649.439 207.582 645.866C208.237 641.231 209.029 636.595 210.012 631.986C202.284 633.131 194.447 629.804 186.747 630.922C186.439 633.425 185.499 635.808 184.016 637.849C183.35 638.663 182.519 639.326 181.578 639.797C180.637 640.267 179.607 640.532 178.555 640.576C175.999 640.977 173.414 641.159 170.827 641.121C164.329 641.121 157.83 641.667 151.358 642.076C148.598 642.031 145.875 642.718 143.467 644.067C142.676 644.468 142.005 645.07 141.522 645.813C141.038 646.555 140.759 647.412 140.712 648.296C140.665 649.18 140.852 650.062 141.254 650.851C141.656 651.64 142.259 652.31 143.002 652.793C147.808 656.393 155.099 657.02 160.861 657.593C167.36 658.247 173.94 658.547 180.467 658.956L193.464 659.72C196.714 659.801 201.356 660.483 204.059 658.411Z" fill="#252935"/>
<path d="M376.825 456.339C375.862 455.15 374.469 454.386 372.948 454.212C369.07 453.857 364.592 457.839 362.025 460.32C358.815 463.323 356.395 467.069 354.98 471.228C353.806 474.91 352.441 482.3 356.018 485.136C360.387 488.6 368.005 483.745 371.255 480.664C376.716 475.428 381.194 466.592 378.3 458.848C377.956 457.933 377.457 457.085 376.825 456.339Z" fill="#F4BE90"/>
<path d="M379.365 243.413C380.471 245.588 380.724 248.098 380.075 250.449C379.979 252.844 379.733 255.23 379.338 257.594C378.242 262.528 375.705 267.027 372.047 270.52C370.19 272.238 367.432 273.765 365.193 272.565C364.247 271.89 363.496 270.976 363.017 269.918C362.537 268.86 362.346 267.694 362.462 266.539C362.375 259.548 364.268 252.676 367.923 246.713C368.564 245.299 369.54 244.063 370.768 243.113C371.996 242.162 373.438 241.526 374.969 241.259C375.819 241.252 376.659 241.443 377.422 241.817C378.185 242.191 378.85 242.737 379.365 243.413Z" fill="#563624"/>
<path d="M385.7 245.431C377.208 244.859 369.89 251.731 366.121 259.476C363.441 264.745 362.296 270.66 362.817 276.547C363.107 279.49 364.007 282.341 365.46 284.918C366.912 287.496 368.886 289.743 371.255 291.518C373.929 293.2 376.923 294.311 380.048 294.78C383.174 295.25 386.362 295.067 389.413 294.245C393.067 293.41 396.519 291.862 399.571 289.691C400.718 288.873 401.892 288.055 403.067 287.291C404.241 286.528 404.541 285.737 405.415 285.437C405.969 285.291 406.536 285.2 407.108 285.164C408.605 285.007 410.041 284.483 411.286 283.637C412.253 283.047 413.023 282.184 413.498 281.155C413.774 280.469 413.931 279.74 413.962 279.001C414.065 276.515 414.32 274.038 414.726 271.584C415.242 270.118 415.437 268.559 415.301 267.012C415.164 265.465 414.698 263.965 413.934 262.612C412.433 260.676 410.057 259.885 408.2 258.521C406.343 257.158 405.852 254.212 404.295 252.113C400.8 247.422 394.301 244.668 389.14 247.095" fill="#F4BE90"/>
<path d="M398.561 234.714C398.373 232.473 397.688 230.302 396.554 228.358C395.42 226.414 393.867 224.748 392.008 223.479C389.806 222.075 387.253 221.317 384.641 221.293C382.029 221.269 379.462 221.979 377.235 223.343C367.787 229.451 371.364 243.086 379.447 248.622C386.819 253.64 402.138 250.095 405.934 260.294C407.927 265.748 403.367 271.42 403.695 277.174C405.306 277.038 406.425 275.483 407.354 274.174C408.282 272.865 409.893 271.447 411.422 272.156C411.981 272.472 412.448 272.927 412.778 273.476C413.108 274.026 413.29 274.652 413.306 275.292C413.62 276.966 413.46 278.695 412.842 280.283C412.522 281.073 412.01 281.771 411.352 282.314C410.694 282.857 409.911 283.227 409.074 283.392C408.165 283.451 407.253 283.451 406.343 283.392C405.058 283.55 403.828 284.011 402.755 284.736C401.682 285.462 400.797 286.431 400.172 287.564C398.807 289.827 396.704 294.354 400.718 292.309C402.882 291.124 404.922 289.726 406.808 288.137C412.43 283.76 416.777 277.96 419.396 271.338C421.24 266.405 421.431 261.008 419.942 255.958C419.579 254.407 418.816 252.978 417.73 251.813C417.188 251.23 416.497 250.808 415.731 250.592C414.966 250.375 414.155 250.373 413.388 250.586C413.437 247.942 413.153 245.304 412.542 242.732C411.928 240.13 410.396 237.835 408.227 236.269C406.742 235.347 405.008 234.907 403.262 235.01C401.517 235.112 399.846 235.752 398.479 236.841C398.547 236.134 398.575 235.424 398.561 234.714Z" fill="#563624"/>
<path d="M327.838 252.74C327.424 253.183 327.116 253.715 326.937 254.294C323.995 261.523 321.63 268.973 319.865 276.574C319.486 277.527 319.342 278.558 319.447 279.579C319.551 280.6 319.901 281.58 320.465 282.437C321.111 283.001 321.909 283.362 322.76 283.474C323.61 283.585 324.474 283.443 325.244 283.064C326.761 282.243 328.062 281.075 329.04 279.656C334.666 271.981 338.611 263.21 340.617 253.912" fill="#F24B57"/>
<path d="M361.752 252.113C360.414 257.403 357.11 262.284 351.758 263.157C349.482 263.444 347.171 263.23 344.986 262.53C340.372 261.221 335.62 258.63 331.688 257.458C328.563 256.501 325.38 255.745 322.158 255.194C318.878 254.632 315.569 254.249 312.246 254.049C299.085 253.231 285.923 254.676 272.761 254.84L302.798 183.937C309.052 195.516 316.551 206.379 325.162 216.334C327.583 218.989 330.174 221.485 332.917 223.806C334.637 225.279 336.439 226.697 338.378 228.088C342.751 231.797 347.511 235.025 352.577 237.714L355.308 238.968C357.01 239.731 358.55 240.814 359.841 242.159C360.942 243.54 361.691 245.167 362.024 246.901C362.357 248.634 362.264 250.423 361.752 252.113Z" fill="#F54B56"/>
<path d="M306.512 210.335C305.968 214.546 305.008 218.693 303.645 222.715C301.493 229.274 298.313 235.45 294.224 241.014C286.496 251.376 276.639 256.83 268.338 254.076C255.968 249.931 251.736 229.233 258.917 207.717C266.099 186.201 281.909 172.266 294.224 176.356C304.136 179.765 308.806 193.782 306.512 210.335Z" fill="#505982"/>
<path d="M302.853 211.044C302.853 211.616 302.689 212.216 302.58 212.789C302.548 213.055 302.502 213.319 302.443 213.58C301.976 216.356 301.291 219.092 300.395 221.761C299.254 225.199 297.791 228.523 296.026 231.687L295.043 233.378C294.21 234.774 293.298 236.121 292.313 237.414C285.677 246.304 277.267 251.049 270.14 248.595C259.573 245.077 255.968 227.351 262.112 208.971C268.256 190.591 281.772 178.647 292.313 182.137C300.832 184.892 304.819 196.891 302.853 211.044Z" fill="#252935"/>
<path d="M301.979 215.789C301.992 215.998 301.992 216.207 301.979 216.416C301.594 218.617 301.047 220.786 300.341 222.906C299.41 225.67 298.231 228.344 296.818 230.896L296.026 232.26C294.306 232.26 290.975 231.933 289.336 231.905H288.244C286.824 231.905 282.592 231.469 282.182 231.415C282.182 231.415 282.592 231.415 282.756 230.569C282.919 229.724 283.083 229.506 283.247 228.96C283.984 226.56 284.776 224.161 285.623 221.788C287.288 217.07 289.118 212.353 290.374 207.471C290.756 206.981 291.166 206.49 291.521 205.972C292.067 206.299 299.876 213.771 301.979 215.789Z" fill="url(#paint0_linear_378_3186)"/>
<path d="M293.432 215.98C293.252 217.419 292.923 218.835 292.449 220.207C291.725 222.445 290.646 224.553 289.254 226.451C286.524 229.997 283.247 231.905 280.407 230.924C276.175 229.506 274.755 222.443 277.212 215.107C279.67 207.771 285.049 202.999 289.254 204.417C292.64 205.644 294.224 210.526 293.432 215.98Z" fill="#FFB200"/>
<path d="M361.752 252.113C360.414 257.403 357.11 262.284 351.758 263.157C349.482 263.444 347.171 263.23 344.986 262.53C348.202 259.507 350.766 255.861 352.522 251.814C354.278 247.768 355.189 243.406 355.199 238.996C356.901 239.758 358.44 240.841 359.732 242.186C360.847 243.554 361.614 245.172 361.966 246.901C362.318 248.63 362.244 250.418 361.752 252.113Z" fill="#252935"/>
<g style="mix-blend-mode:multiply" opacity="0.28">
<g style="mix-blend-mode:multiply" opacity="0.28">
<path d="M493.314 160.621C485.889 188.681 476.322 216.132 464.697 242.732C461.447 250.286 458.034 257.758 454.593 265.202C453.747 267.002 456.286 268.584 457.324 266.784C471.504 241.138 482.385 213.806 489.709 185.437C491.839 177.256 493.669 169.293 495.307 161.167C495.553 159.885 493.669 159.34 493.341 160.621H493.314Z" fill="#FF7900"/>
</g>
</g>
<g style="mix-blend-mode:multiply" opacity="0.28">
<g style="mix-blend-mode:multiply" opacity="0.28">
<path d="M485.586 230.106C476.758 257.84 465.803 284.854 452.818 310.907C449.214 318.216 445.473 325.469 441.678 332.723C441.507 333.082 441.478 333.491 441.596 333.87C441.714 334.249 441.97 334.57 442.314 334.769C442.658 334.968 443.064 335.031 443.452 334.945C443.84 334.859 444.181 334.631 444.408 334.305C459.773 309.414 471.955 282.7 480.671 254.785C483.21 246.822 485.449 238.778 487.497 230.678C487.57 230.418 487.536 230.14 487.402 229.904C487.269 229.669 487.048 229.496 486.787 229.424C486.527 229.352 486.248 229.386 486.012 229.519C485.777 229.652 485.604 229.873 485.531 230.133L485.586 230.106Z" fill="#FF7900"/>
</g>
</g>
<g style="mix-blend-mode:multiply" opacity="0.28">
<g style="mix-blend-mode:multiply" opacity="0.28">
<path d="M468.246 192.582C467.728 194.464 466.799 196.127 466.171 198.036C465.543 199.945 464.86 201.636 464.26 203.49C463.031 207.117 461.748 210.744 460.355 214.398C457.624 221.516 454.703 228.633 452.409 235.914C452.343 236.22 452.386 236.539 452.531 236.815C452.677 237.092 452.914 237.309 453.203 237.429C453.492 237.549 453.814 237.564 454.113 237.472C454.412 237.379 454.669 237.185 454.839 236.923C458.676 230.231 461.684 223.097 463.796 215.68C464.915 212.026 465.925 208.317 466.881 204.608C467.345 202.754 467.7 200.872 468.055 198.99C468.41 197.109 468.465 194.927 468.902 192.936C468.902 192.5 468.356 192.309 468.246 192.746V192.582Z" fill="#FF7900"/>
</g>
</g>
<g style="mix-blend-mode:multiply" opacity="0.28">
<g style="mix-blend-mode:multiply" opacity="0.28">
<path d="M255.258 618.133C264.16 613.197 273.116 608.152 281.581 602.507C290.046 596.862 298.211 590.999 306.157 584.89C322.335 572.549 337.61 559.07 351.867 544.558C359.954 536.451 367.533 527.854 374.559 518.815C375.597 517.479 373.412 515.87 372.265 517.015C358.121 531.386 344.222 545.867 329.094 559.202C314.164 572.551 298.532 585.095 282.264 596.78C272.925 603.38 263.614 609.979 253.975 616.142C253.711 616.297 253.519 616.552 253.442 616.848C253.365 617.145 253.409 617.46 253.565 617.724C253.721 617.988 253.975 618.179 254.272 618.256C254.569 618.333 254.885 618.288 255.149 618.133H255.258Z" fill="#FF7900"/>
</g>
</g>
<g style="mix-blend-mode:multiply" opacity="0.28">
<g style="mix-blend-mode:multiply" opacity="0.28">
<path d="M359.868 565.856C352.153 576.75 342.773 586.366 332.07 594.353C329.968 595.962 331.852 599.507 334.2 598.007C340.114 594.189 345.495 589.604 350.202 584.372C354.857 579.142 358.813 573.33 361.971 567.083C362.085 566.809 362.096 566.503 362.001 566.221C361.906 565.94 361.713 565.702 361.456 565.552C361.199 565.402 360.897 565.351 360.605 565.406C360.313 565.462 360.051 565.622 359.868 565.856Z" fill="#FF7900"/>
</g>
</g>
<path d="M346.843 517.015C332.766 532.579 317.221 546.752 300.423 559.338C295.699 562.802 290.702 565.911 286.305 569.81C285.131 570.846 286.633 572.346 287.862 571.801C292.71 569.504 297.289 566.678 301.515 563.374C305.775 560.238 309.98 556.993 314.076 553.612C322.196 546.863 329.85 539.575 336.986 531.795C340.963 527.4 344.701 522.794 348.181 517.997C348.7 517.315 347.553 516.442 346.952 517.07L346.843 517.015Z" fill="#FF7900"/>
<g style="mix-blend-mode:screen" opacity="0.3">
<g style="mix-blend-mode:screen" opacity="0.3">
<path d="M442.005 133.051C437.199 134.578 431.711 137.523 426.905 138.505C422.099 139.487 422.235 135.778 424.993 133.051C428.844 129.288 433.185 125.743 437.063 122.007C473.471 87.3008 508.141 50.9406 541.072 12.926C542.191 18.68 530.696 73.7385 524.115 94.9547C523.323 97.4908 451.235 130.079 442.005 133.051Z" fill="#FFB200"/>
</g>
</g>
<g style="mix-blend-mode:screen" opacity="0.13">
<g style="mix-blend-mode:screen" opacity="0.13">
<path d="M375.023 360.975C369.562 389.554 349.847 413.088 329.804 434.359C300.232 428.196 287.835 420.724 282.728 416.034C297.075 398.563 310.5 380.358 322.95 361.493C328.685 352.494 334.282 342.895 343.266 337.141C352.25 331.387 365.848 331.142 372.238 339.677C376.689 345.595 376.443 353.749 375.023 360.975Z" fill="#FFB200"/>
</g>
</g>
<path d="M481.271 439.241C493.286 428.332 505.41 417.424 517.288 406.298L552.622 373.192C559.34 366.92 566.276 360.675 572.583 354.103C572.797 353.893 572.918 353.607 572.921 353.308C572.924 353.009 572.807 352.721 572.597 352.508C572.387 352.294 572.101 352.173 571.801 352.171C571.502 352.168 571.213 352.284 570.999 352.494C564.801 357.948 558.93 363.593 552.95 369.156C546.97 374.719 541.208 380.255 535.338 385.791C523.596 396.863 511.891 407.971 500.222 419.115C493.587 425.496 487.088 432.014 480.48 438.422C479.933 438.941 480.725 439.731 481.271 439.241Z" fill="#2C2C2D"/>
<path d="M473.243 441.013C473.871 441.013 474.5 441.013 475.128 441.013L477.121 440.795C477.804 440.795 478.513 440.549 479.196 440.44C479.879 440.331 480.534 440.249 481.19 440.113L479.551 438.859L479.169 442.758C479.169 443.413 479.005 444.067 478.978 444.722C478.95 445.376 478.978 445.322 478.978 445.622C478.965 445.776 478.965 445.931 478.978 446.085C479.011 446.34 479.104 446.583 479.251 446.794C479.312 446.904 479.397 446.997 479.5 447.069C479.603 447.14 479.721 447.186 479.845 447.205C479.969 447.223 480.096 447.213 480.215 447.175C480.335 447.137 480.444 447.072 480.534 446.985C480.694 446.838 480.823 446.663 480.916 446.467C481 446.295 481.055 446.111 481.08 445.922C481.08 445.622 481.244 445.349 481.299 445.049C481.435 444.313 481.49 443.576 481.599 442.84L482.118 438.859C482.124 438.66 482.08 438.464 481.989 438.287C481.898 438.111 481.764 437.96 481.599 437.85C481.445 437.723 481.264 437.635 481.069 437.592C480.874 437.549 480.672 437.553 480.48 437.604C479.851 437.604 479.223 437.904 478.595 438.041C477.967 438.177 477.257 438.341 476.629 438.559C476.001 438.777 475.401 438.968 474.8 439.213C474.199 439.459 473.544 439.786 472.943 440.059C472.843 440.12 472.766 440.213 472.723 440.322C472.679 440.431 472.673 440.551 472.703 440.665C472.734 440.778 472.8 440.878 472.893 440.951C472.985 441.024 473.099 441.064 473.216 441.068L473.243 441.013Z" fill="#2C2C2D"/>
<path d="M506.748 521.76C490.246 553.11 470.799 582.822 448.668 610.497C426.675 638.117 402.148 663.625 375.405 686.69C360.25 699.78 344.386 711.997 328.029 723.559C327.428 723.968 328.029 724.95 328.575 724.541C358.027 704.545 385.397 681.651 410.275 656.202C449.285 616.679 482.07 571.479 507.513 522.142C507.731 521.705 507.076 521.351 506.857 521.76H506.748Z" fill="#FF7900"/>
<path d="M489.136 587.89C475.592 609.459 459.843 629.565 442.142 647.885C442.069 647.957 442.029 648.055 442.029 648.157C442.029 648.26 442.069 648.358 442.142 648.43C442.214 648.502 442.312 648.543 442.415 648.543C442.517 648.543 442.615 648.502 442.688 648.43C460.586 630.227 476.285 609.991 489.463 588.136C489.48 588.083 489.478 588.027 489.458 587.975C489.439 587.924 489.402 587.88 489.355 587.852C489.308 587.824 489.252 587.812 489.198 587.819C489.143 587.826 489.092 587.851 489.054 587.89H489.136Z" fill="#FF7900"/>
<path d="M179.292 685.026C150.257 704.37 122.04 724.814 94.6433 746.357C86.9429 752.384 79.2972 758.52 71.8699 764.874C71.4876 765.201 72.0337 765.719 72.416 765.419C86.2329 754.511 99.9133 743.603 113.921 732.858C127.929 722.114 141.473 712.324 155.509 702.398C163.519 696.744 171.583 691.171 179.702 685.681C180.112 685.408 179.702 684.754 179.32 685.026H179.292Z" fill="#FF7900"/>
<path d="M133.363 697.134C115.245 708.983 98.1062 722.26 82.1097 736.84C81.7274 737.194 82.3008 737.767 82.6831 737.412C98.7751 723.05 115.816 709.785 133.691 697.707C134.046 697.462 133.691 696.862 133.363 697.107V697.134Z" fill="#FF7900"/>
<path d="M129.486 678.891C94.443 701.434 60.3831 725.404 27.3062 750.802C18.1313 757.838 9.09293 765.037 0.136507 772.291C-0.273086 772.646 0.300404 773.218 0.709996 772.891C33.177 747.175 66.4633 722.468 100.623 699.071C110.29 692.444 120.011 685.872 129.814 679.436C130.141 679.218 129.814 678.673 129.486 678.891Z" fill="#FF7900"/>
<path d="M324.261 275.074C325.802 274.454 327.185 273.498 328.309 272.276C329.434 271.054 330.271 269.597 330.76 268.011C331.989 264.602 331.879 261.139 328.603 259.094C327.541 258.35 326.293 257.915 324.998 257.839C323.877 257.986 322.804 258.383 321.858 259.002C320.913 259.62 320.119 260.444 319.537 261.412C318.344 262.932 317.37 264.612 316.642 266.402C315.777 268.032 315.488 269.906 315.823 271.72C316.642 273.15 317.923 274.26 319.455 274.869C320.988 275.478 322.682 275.551 324.261 275.074Z" fill="#F4BE90"/>
<path d="M245.483 120.534L245.974 121.816" stroke="#43496D" stroke-linecap="round" stroke-linejoin="round"/>
<path d="M251.381 135.533C257.17 149.604 263.541 163.412 270.495 176.956" stroke="#43496D" stroke-linecap="round" stroke-linejoin="round" stroke-dasharray="1.08 5.4"/>
<path d="M273.936 183.474L274.591 184.701" stroke="#43496D" stroke-linecap="round" stroke-linejoin="round"/>
<path d="M149.884 142.732L150.894 143.632" stroke="#43496D" stroke-linecap="round" stroke-linejoin="round"/>
<path d="M160.724 152.222C187.018 174.409 216.043 193.15 247.094 207.99" stroke="#43496D" stroke-linecap="round" stroke-linejoin="round" stroke-dasharray="0.96 4.78"/>
<path d="M252.992 210.744L254.221 211.289" stroke="#43496D" stroke-linecap="round" stroke-linejoin="round"/>
<path d="M107.341 184.401C107.739 184.622 108.149 184.823 108.569 185.001" stroke="#43496D" stroke-linecap="round" stroke-linejoin="round"/>
<path d="M121.676 190.591C157.912 204.717 210.804 216.034 247.503 221.652" stroke="#43496D" stroke-linecap="round" stroke-linejoin="round" stroke-dasharray="1.04 5.22"/>
<path d="M254.63 222.688L255.995 222.879" stroke="#43496D" stroke-linecap="round" stroke-linejoin="round"/>
<path d="M169.08 236.869H170.445" stroke="#43496D" stroke-linecap="round" stroke-linejoin="round"/>
<path d="M183.798 237.632C202.952 238.852 222.173 238.542 241.277 236.705" stroke="#43496D" stroke-linecap="round" stroke-linejoin="round" stroke-dasharray="0.98 4.9"/>
<path d="M247.885 235.832L249.251 235.614" stroke="#43496D" stroke-linecap="round" stroke-linejoin="round"/>
<path d="M226.286 327.215C212.278 317.643 208.619 301.39 216.62 286.555C219.897 280.474 209.903 276.465 206.653 282.519C201.7 291.445 200.303 301.91 202.744 311.82C205.184 321.73 211.281 330.355 219.815 335.968C225.522 339.841 232.021 331.278 226.286 327.351V327.215Z" fill="#FFB200"/>
<path d="M238.246 313.143C233.386 309.953 229.126 301.117 232.403 295.581C235.68 290.045 227.324 283.201 223.801 289.146C217.576 299.645 221.535 314.998 231.775 321.87C237.537 325.66 244.035 317.097 238.246 313.252V313.143Z" fill="#FFB200"/>
<path d="M246.22 305.971C252.609 303.244 248.432 293.372 242.042 296.072C235.652 298.772 239.83 308.671 246.22 305.971Z" fill="#FFB200"/>
</g>
<defs>
<linearGradient id="paint0_linear_378_3186" x1="289.527" y1="219.77" x2="304.185" y2="225.701" gradientUnits="userSpaceOnUse">
<stop stop-color="#FF9100" stop-opacity="0.97"/>
<stop offset="0.22" stop-color="#C2740F" stop-opacity="0.97"/>
<stop offset="0.53" stop-color="#6E4C23" stop-opacity="0.97"/>
<stop offset="0.75" stop-color="#393330" stop-opacity="0.97"/>
<stop offset="0.86" stop-color="#252935" stop-opacity="0.97"/>
</linearGradient>
<clipPath id="clip0_378_3186">
<rect width="653" height="773" fill="white"/>
</clipPath>
</defs>
</svg>
