<svg width="1728" height="1076" viewBox="0 0 1728 1076" fill="none" xmlns="http://www.w3.org/2000/svg">
<mask id="mask0_620_4262" style="mask-type:alpha" maskUnits="userSpaceOnUse" x="0" y="0" width="1728" height="1076">
<rect width="1728" height="1076" fill="#D9D9D9"/>
</mask>
<g mask="url(#mask0_620_4262)">
<path d="M679.065 -1436.49C851.492 -1459.24 1025.9 -1412.59 1163.94 -1306.79L1543.61 -1015.79C1681.7 -909.955 1772.09 -753.598 1794.89 -581.117L1857.53 -107.352C1880.35 65.1881 1833.66 239.723 1727.75 377.83L1436.94 757.049C1331.07 895.109 1174.68 985.457 1002.2 1008.22L527.945 1070.79C355.518 1093.54 181.113 1046.89 43.0728 941.092L-336.599 650.095C-474.688 544.258 -565.076 387.901 -587.882 215.42L-650.522 -258.345C-673.335 -430.886 -626.648 -605.42 -520.738 -743.528L-229.929 -1122.75C-124.055 -1260.81 32.326 -1351.15 204.813 -1373.91L679.065 -1436.49Z" fill="#24262A"/>
</g>
</svg>
