<svg width="321" height="321" viewBox="0 0 321 321" fill="none" xmlns="http://www.w3.org/2000/svg">
<g clip-path="url(#clip0_378_3272)">
<path opacity="0.17" d="M311.171 128.304H275.841C273.291 119.509 269.725 111.04 265.216 103.069L290.77 77.5139C292.606 75.663 293.637 73.1613 293.637 70.5541C293.637 67.9468 292.606 65.4452 290.77 63.5943L258.362 31.1862C256.511 29.3499 254.009 28.3195 251.402 28.3195C248.795 28.3195 246.293 29.3499 244.442 31.1862L218.516 57.1658C210.742 52.9634 202.528 49.6315 194.024 47.2308V10.0412C194.024 8.74596 193.768 7.46352 193.27 6.26758C192.773 5.07163 192.045 3.98578 191.126 3.0724C190.208 2.15902 189.118 1.43616 187.919 0.945362C186.721 0.454559 185.437 0.205514 184.142 0.212515H138.346C137.05 0.205514 135.766 0.454559 134.568 0.945362C133.369 1.43616 132.279 2.15902 131.361 3.0724C130.443 3.98578 129.714 5.07163 129.217 6.26758C128.72 7.46352 128.464 8.74596 128.464 10.0412V47.2308C120.077 49.5832 111.971 52.8433 104.29 56.9533L77.7262 30.3892C75.8753 28.5529 73.3737 27.5225 70.7665 27.5225C68.1592 27.5225 65.6576 28.5529 63.8067 30.3892L31.3455 62.8505C29.5092 64.7014 28.479 67.203 28.479 69.8103C28.479 72.4175 29.5092 74.9192 31.3455 76.7701L57.4313 102.803C53.0126 110.521 49.4496 118.698 46.8056 127.189H10.0411C7.43436 127.189 4.93462 128.224 3.09138 130.067C1.24814 131.911 0.212524 134.411 0.212524 137.017V182.867C0.212524 185.474 1.24814 187.974 3.09138 189.817C4.93462 191.66 7.43436 192.696 10.0411 192.696H45.5838C47.8785 201.668 51.2314 210.335 55.5719 218.516L30.6016 243.486C29.6796 244.395 28.9476 245.479 28.4479 246.674C27.9481 247.869 27.6907 249.151 27.6907 250.446C27.6907 251.741 27.9481 253.023 28.4479 254.218C28.9476 255.413 29.6796 256.496 30.6016 257.406L63.01 289.814C64.8609 291.65 67.3625 292.68 69.9697 292.68C72.577 292.68 75.0786 291.65 76.9295 289.814L101.05 265.694C109.41 270.56 118.33 274.396 127.614 277.116V311.171C127.607 312.466 127.856 313.75 128.346 314.949C128.837 316.148 129.56 317.237 130.474 318.156C131.387 319.074 132.473 319.803 133.669 320.3C134.865 320.797 136.147 321.053 137.442 321.053H183.292C184.587 321.053 185.87 320.797 187.066 320.3C188.262 319.803 189.347 319.074 190.261 318.156C191.174 317.237 191.897 316.148 192.388 314.949C192.879 313.75 193.128 312.466 193.121 311.171V277.701C202.523 275.196 211.572 271.519 220.057 266.756L243.911 290.664C245.762 292.5 248.264 293.531 250.871 293.531C253.478 293.531 255.98 292.5 257.831 290.664L290.239 258.256C291.161 257.346 291.893 256.263 292.393 255.068C292.892 253.873 293.15 252.591 293.15 251.296C293.15 250.001 292.892 248.719 292.393 247.524C291.893 246.329 291.161 245.246 290.239 244.336L265.8 220.428C270.43 212.049 273.999 203.126 276.425 193.864H311.118C313.725 193.864 316.225 192.829 318.068 190.986C319.911 189.142 320.947 186.642 320.947 184.036V138.186C320.954 136.895 320.706 135.616 320.219 134.421C319.731 133.226 319.013 132.138 318.106 131.221C317.198 130.303 316.118 129.573 314.928 129.073C313.739 128.572 312.462 128.311 311.171 128.304ZM161.191 227.92C148.216 227.909 135.535 224.052 124.752 216.836C113.969 209.62 105.568 199.369 100.61 187.379C95.6519 175.388 94.3599 162.198 96.8976 149.473C99.4353 136.749 105.689 125.063 114.867 115.892C124.045 106.721 135.736 100.477 148.463 97.95C161.189 95.4226 174.379 96.7251 186.365 101.693C198.351 106.66 208.596 115.07 215.803 125.859C223.01 136.648 226.857 149.332 226.857 162.306C226.857 170.927 225.158 179.464 221.857 187.428C218.557 195.392 213.719 202.627 207.621 208.721C201.522 214.814 194.283 219.646 186.316 222.94C178.349 226.234 169.812 227.927 161.191 227.92Z" fill="url(#paint0_linear_378_3272)"/>
</g>
<defs>
<linearGradient id="paint0_linear_378_3272" x1="129.845" y1="12.6445" x2="161" y2="213.5" gradientUnits="userSpaceOnUse">
<stop offset="0.02" stop-color="#EA1D5D"/>
<stop offset="1" stop-color="#24262A"/>
</linearGradient>
<clipPath id="clip0_378_3272">
<rect width="321" height="321" fill="white"/>
</clipPath>
</defs>
</svg>
