<svg width="101" height="101" viewBox="0 0 101 101" fill="none" xmlns="http://www.w3.org/2000/svg">
<g clip-path="url(#clip0_378_3157)">
<path opacity="0.17" d="M97.9074 40.3699H86.7912C85.9886 37.6024 84.8667 34.9377 83.4479 32.4297L91.4884 24.3891C92.0662 23.8068 92.3904 23.0196 92.3904 22.1993C92.3904 21.3789 92.0662 20.5918 91.4884 20.0094L81.2914 9.8125C80.7091 9.23472 79.9219 8.91051 79.1016 8.91051C78.2812 8.91051 77.4941 9.23472 76.9118 9.8125L68.7542 17.9868C66.3082 16.6645 63.7239 15.6162 61.048 14.8608V3.15938C61.048 2.75186 60.9674 2.34835 60.811 1.97205C60.6545 1.59576 60.4253 1.2541 60.1364 0.966717C59.8474 0.679331 59.5044 0.45189 59.1273 0.297463C58.7502 0.143036 58.3463 0.0646758 57.9388 0.0668787H43.5293C43.1218 0.0646758 42.7178 0.143036 42.3407 0.297463C41.9636 0.45189 41.6207 0.679331 41.3317 0.966717C41.0428 1.2541 40.8135 1.59576 40.657 1.97205C40.5006 2.34835 40.4201 2.75186 40.4201 3.15938V14.8608C37.7811 15.601 35.2307 16.6267 32.8141 17.9199L24.4559 9.56174C23.8736 8.98396 23.0865 8.65975 22.2661 8.65975C21.4458 8.65975 20.6586 8.98396 20.0763 9.56174L9.86263 19.7754C9.28485 20.3578 8.9607 21.1449 8.9607 21.9652C8.9607 22.7856 9.28485 23.5727 9.86263 24.1551L18.0703 32.3461C16.68 34.7744 15.5589 37.3472 14.727 40.0189H3.15937C2.33919 40.0189 1.55266 40.3447 0.972702 40.9246C0.392742 41.5046 0.0668945 42.2912 0.0668945 43.1114V57.5376C0.0668945 58.3577 0.392742 59.1443 0.972702 59.7243C1.55266 60.3043 2.33919 60.6301 3.15937 60.6301H14.3426C15.0646 63.4531 16.1196 66.1802 17.4853 68.7542L9.62858 76.6109C9.33847 76.897 9.10814 77.2379 8.95091 77.6139C8.79368 77.9898 8.71267 78.3932 8.71267 78.8007C8.71267 79.2082 8.79368 79.6116 8.95091 79.9876C9.10814 80.3635 9.33847 80.7044 9.62858 80.9905L19.8256 91.1875C20.408 91.7653 21.1951 92.0895 22.0154 92.0895C22.8358 92.0895 23.6229 91.7653 24.2053 91.1875L31.7944 83.5983C34.4251 85.1295 37.2316 86.3363 40.1526 87.1923V97.9075C40.1504 98.315 40.2287 98.7189 40.3832 99.0961C40.5376 99.4732 40.7651 99.8161 41.0525 100.105C41.3399 100.394 41.6815 100.623 42.0578 100.78C42.4341 100.936 42.8376 101.017 43.2452 101.017H57.6713C58.0788 101.017 58.4824 100.936 58.8587 100.78C59.235 100.623 59.5766 100.394 59.8639 100.105C60.1513 99.8161 60.3788 99.4732 60.5333 99.0961C60.6877 98.7189 60.766 98.315 60.7638 97.9075V87.3762C63.7221 86.5882 66.5695 85.4313 69.239 83.9326L76.7446 91.455C77.327 92.0328 78.1141 92.357 78.9345 92.357C79.7548 92.357 80.5419 92.0328 81.1243 91.455L91.3212 81.258C91.6113 80.9719 91.8418 80.631 91.999 80.255C92.1562 79.8791 92.2371 79.4757 92.2371 79.0682C92.2371 78.6607 92.1562 78.2573 91.999 77.8813C91.8418 77.5054 91.6113 77.1645 91.3212 76.8783L83.6317 69.356C85.0886 66.7194 86.2116 63.9118 86.975 60.9978H97.8907C98.7109 60.9978 99.4975 60.672 100.077 60.0921C100.657 59.5121 100.983 58.7255 100.983 57.9053V43.4792C100.985 43.073 100.908 42.6704 100.754 42.2944C100.601 41.9184 100.375 41.5762 100.089 41.2875C99.8037 40.9988 99.464 40.7691 99.0896 40.6117C98.7153 40.4543 98.3136 40.3721 97.9074 40.3699ZM50.7173 71.713C46.6349 71.7097 42.6451 70.4961 39.2523 68.2256C35.8595 65.9552 33.2161 62.7298 31.6561 58.9572C30.0961 55.1845 29.6896 51.0341 30.4881 47.0306C31.2865 43.027 33.2541 39.35 36.142 36.4645C39.0298 33.5789 42.7084 31.6144 46.7126 30.8192C50.7168 30.024 54.8669 30.4338 58.6383 31.9968C62.4096 33.5598 65.6329 36.2059 67.9006 39.6005C70.1683 42.9952 71.3787 46.9859 71.3787 51.0684C71.3787 53.7809 70.8441 56.4668 69.8056 58.9726C68.7671 61.4784 67.2449 63.755 65.3261 65.6722C63.4073 67.5895 61.1294 69.1098 58.6228 70.1463C56.1161 71.1828 53.4298 71.7152 50.7173 71.713Z" fill="url(#paint0_linear_378_3157)"/>
</g>
<defs>
<linearGradient id="paint0_linear_378_3157" x1="40.8547" y1="3.97849" x2="50.6573" y2="67.176" gradientUnits="userSpaceOnUse">
<stop offset="0.02" stop-color="#EA1D5D"/>
<stop offset="1" stop-color="#24262A"/>
</linearGradient>
<clipPath id="clip0_378_3157">
<rect width="101" height="101" fill="white"/>
</clipPath>
</defs>
</svg>
