<svg width="201" height="200" viewBox="0 0 201 200" fill="none" xmlns="http://www.w3.org/2000/svg">
<ellipse cx="100.5" cy="100" rx="100.5" ry="100" fill="#24262A"/>
<path d="M136.077 87H95.9231C90.995 87 87 90.995 87 95.9231V136.077C87 141.005 90.995 145 95.9231 145H136.077C141.005 145 145 141.005 145 136.077V95.9231C145 90.995 141.005 87 136.077 87Z" stroke="#02EB9E" stroke-width="3" stroke-linecap="round" stroke-linejoin="round"/>
<path d="M68.6154 114H64.0769C61.6696 114 59.3608 113.044 57.6586 111.341C55.9563 109.639 55 107.33 55 104.923V64.0769C55 61.6696 55.9563 59.3608 57.6586 57.6586C59.3608 55.9563 61.6696 55 64.0769 55H104.923C107.33 55 109.639 55.9563 111.341 57.6586C113.044 59.3608 114 61.6696 114 64.0769V68.6154" stroke="#02EB9E" stroke-width="3" stroke-linecap="round" stroke-linejoin="round"/>
</svg>
