<svg width="125" height="128" viewBox="0 0 125 128" fill="none" xmlns="http://www.w3.org/2000/svg">
<circle cx="63.6015" cy="67.2362" r="60.5731" fill="#24262A"/>
<path d="M87.4934 39.9783H42.7366C39.2054 39.9783 36.3428 42.8409 36.3428 46.3722V91.129C36.3428 94.6602 39.2054 97.5228 42.7366 97.5228H87.4934C91.0246 97.5228 93.8873 94.6602 93.8873 91.129V46.3722C93.8873 42.8409 91.0246 39.9783 87.4934 39.9783Z" stroke="#02EB9E" stroke-width="3" stroke-linecap="round" stroke-linejoin="round"/>
<path d="M36.3428 59.1583H93.8873" stroke="#02EB9E" stroke-width="3" stroke-linecap="round" stroke-linejoin="round"/>
<path d="M55.5254 97.5213V59.1583" stroke="#02EB9E" stroke-width="3" stroke-linecap="round" stroke-linejoin="round"/>
<circle cx="19.9891" cy="19.9891" r="19.9891" fill="#02EB9E"/>
<path d="M17.877 18.0107H19.4785C19.8887 18.0107 20.224 17.9391 20.4844 17.7959C20.7513 17.6462 20.9499 17.4378 21.0801 17.1709C21.2103 16.8975 21.2754 16.5752 21.2754 16.2041C21.2754 15.9176 21.2135 15.654 21.0898 15.4131C20.9727 15.1722 20.7904 14.9801 20.543 14.8369C20.2956 14.6872 19.9798 14.6123 19.5957 14.6123C19.3353 14.6123 19.0814 14.6676 18.834 14.7783C18.5866 14.8825 18.3815 15.0322 18.2188 15.2275C18.0625 15.4229 17.9844 15.6605 17.9844 15.9404H14.6836C14.6836 15.1331 14.9049 14.443 15.3477 13.8701C15.7969 13.2907 16.3861 12.848 17.1152 12.542C17.8509 12.2295 18.6419 12.0732 19.4883 12.0732C20.4974 12.0732 21.3828 12.2295 22.1445 12.542C22.9062 12.848 23.4987 13.3037 23.9219 13.9092C24.3516 14.5081 24.5664 15.2503 24.5664 16.1357C24.5664 16.624 24.4525 17.083 24.2246 17.5127C23.9967 17.9424 23.6777 18.32 23.2676 18.6455C22.8574 18.971 22.3757 19.2282 21.8223 19.417C21.2754 19.5993 20.6764 19.6904 20.0254 19.6904H17.877V18.0107ZM17.877 20.4619V18.8213H20.0254C20.735 18.8213 21.3828 18.9027 21.9688 19.0654C22.5547 19.2217 23.0592 19.4561 23.4824 19.7686C23.9056 20.0811 24.2311 20.4684 24.459 20.9307C24.6868 21.3864 24.8008 21.9105 24.8008 22.5029C24.8008 23.167 24.6673 23.7594 24.4004 24.2803C24.1335 24.8011 23.7591 25.2406 23.2773 25.5986C22.7956 25.9567 22.2324 26.2301 21.5879 26.4189C20.9434 26.6012 20.2435 26.6924 19.4883 26.6924C18.8958 26.6924 18.3034 26.6143 17.7109 26.458C17.1185 26.2952 16.5781 26.0479 16.0898 25.7158C15.6016 25.3773 15.2077 24.9476 14.9082 24.4268C14.6152 23.8994 14.4688 23.2712 14.4688 22.542H17.7695C17.7695 22.8415 17.8509 23.1149 18.0137 23.3623C18.1829 23.6032 18.4076 23.7952 18.6875 23.9385C18.9674 24.0817 19.2702 24.1533 19.5957 24.1533C19.9993 24.1533 20.3411 24.0785 20.6211 23.9287C20.9076 23.7725 21.1257 23.5641 21.2754 23.3037C21.4251 23.0433 21.5 22.7536 21.5 22.4346C21.5 21.9528 21.4186 21.5687 21.2559 21.2822C21.0996 20.9958 20.8685 20.7874 20.5625 20.6572C20.263 20.527 19.9017 20.4619 19.4785 20.4619H17.877Z" fill="#24262A"/>
</svg>
