<svg width="123" height="128" viewBox="0 0 123 128" fill="none" xmlns="http://www.w3.org/2000/svg">
<circle cx="62.3896" cy="67.2363" r="60.5731" fill="#24262A"/>
<path d="M89.6479 79.149C89.6479 80.7198 89.031 82.2263 87.9328 83.337C86.8347 84.4477 85.3454 85.0717 83.7925 85.0717H48.66L36.9492 96.9172V49.5355C36.9492 47.9647 37.5661 46.4582 38.6642 45.3475C39.7623 44.2368 41.2517 43.6128 42.8046 43.6128H83.7925C85.3454 43.6128 86.8347 44.2368 87.9328 45.3475C89.031 46.4582 89.6479 47.9647 89.6479 49.5355V79.149Z" stroke="#02EB9E" stroke-width="3" stroke-linecap="round" stroke-linejoin="round"/>
<circle cx="19.9891" cy="19.9891" r="19.9891" fill="#02EB9E"/>
<path d="M22.5576 11.7812V26H19.2666V15.4922L16.0244 16.4395V13.9395L22.2549 11.7812H22.5576Z" fill="#24262A"/>
</svg>
