<svg width="123" height="128" viewBox="0 0 123 128" fill="none" xmlns="http://www.w3.org/2000/svg">
<ellipse cx="62.086" cy="67.2363" rx="60.876" ry="60.5731" fill="#24262A"/>
<path d="M53.75 65.1775L62.4534 73.9459L91.4648 44.718" stroke="#02EB9E" stroke-width="3" stroke-linecap="round" stroke-linejoin="round"/>
<path d="M88.5632 68.1007V88.5602C88.5632 90.1105 87.9519 91.5973 86.8638 92.6936C85.7756 93.7899 84.2998 94.4057 82.7609 94.4057H42.145C40.6062 94.4057 39.1304 93.7899 38.0422 92.6936C36.9541 91.5973 36.3428 90.1105 36.3428 88.5602V47.6412C36.3428 46.0908 36.9541 44.604 38.0422 43.5077C39.1304 42.4115 40.6062 41.7956 42.145 41.7956H74.0575" stroke="#02EB9E" stroke-width="3" stroke-linecap="round" stroke-linejoin="round"/>
<circle cx="19.9891" cy="19.9891" r="19.9891" fill="#02EB9E"/>
<path d="M25.1943 24.4609V27H15.2725V24.8516L19.8428 20.0469C20.2464 19.5846 20.5719 19.1712 20.8193 18.8066C21.0667 18.4355 21.2458 18.1003 21.3564 17.8008C21.4736 17.5013 21.5322 17.2311 21.5322 16.9902C21.5322 16.5801 21.4704 16.2383 21.3467 15.9648C21.2295 15.6849 21.0537 15.4733 20.8193 15.3301C20.5915 15.1868 20.3083 15.1152 19.9697 15.1152C19.6312 15.1152 19.335 15.2129 19.0811 15.4082C18.8271 15.6035 18.6286 15.8704 18.4854 16.209C18.3486 16.5475 18.2803 16.9284 18.2803 17.3516H14.9795C14.9795 16.4792 15.1911 15.6816 15.6143 14.959C16.0439 14.2363 16.6396 13.6602 17.4014 13.2305C18.1631 12.7943 19.0452 12.5762 20.0479 12.5762C21.096 12.5762 21.9749 12.7389 22.6846 13.0645C23.3942 13.39 23.9281 13.862 24.2861 14.4805C24.6507 15.0924 24.833 15.8314 24.833 16.6973C24.833 17.1921 24.7549 17.6673 24.5986 18.123C24.4424 18.5788 24.2178 19.0312 23.9248 19.4805C23.6318 19.9232 23.2738 20.3789 22.8506 20.8477C22.4339 21.3164 21.9587 21.8145 21.4248 22.3418L19.5889 24.4609H25.1943Z" fill="#24262A"/>
</svg>
