<svg width="318" height="44" viewBox="0 0 318 44" fill="none" xmlns="http://www.w3.org/2000/svg">
<g clip-path="url(#clip0_378_3274)">
<path d="M193.147 6.65622V20.0109C192.345 18.5184 191.146 17.2714 189.679 16.4051C188.17 15.535 186.45 15.0902 184.704 15.1188C183.415 15.1097 182.135 15.3287 180.923 15.7655C181.003 16.3441 180.893 16.9326 180.611 17.4454C180.469 17.7125 180.326 17.9795 180.17 18.2466C180.305 18.1553 180.426 18.0569 180.568 17.9725C181.871 17.251 183.339 16.8721 184.832 16.8721C186.325 16.8721 187.793 17.251 189.096 17.9725C190.348 18.7045 191.373 19.762 192.059 21.03C192.778 22.409 193.154 23.9381 193.154 25.4898C193.154 27.0414 192.778 28.5706 192.059 29.9495C191.373 31.2175 190.348 32.275 189.096 33.007C187.793 33.7286 186.325 34.1074 184.832 34.1074C183.339 34.1074 181.871 33.7286 180.568 33.007C179.316 32.275 178.291 31.2175 177.605 29.9495C177.21 29.243 176.922 28.4827 176.752 27.6933C176.389 28.4099 175.852 29.026 175.188 29.4856C175.973 31.6073 177.481 33.392 179.452 34.5323C181.043 35.4268 182.846 35.8854 184.676 35.8607C186.439 35.8897 188.178 35.4452 189.707 34.5744C191.192 33.7042 192.387 32.4241 193.147 30.8914V35.7061H195.087V6.65622H193.147Z" fill="white"/>
<path d="M204.311 9.84026C204.157 9.69847 204.035 9.52634 203.953 9.33503C203.871 9.14371 203.831 8.9375 203.835 8.72973C203.836 8.41294 203.932 8.10362 204.11 7.84021C204.288 7.57681 204.54 7.37091 204.836 7.24811C205.131 7.12531 205.456 7.09101 205.771 7.14948C206.086 7.20795 206.376 7.35662 206.606 7.577C206.761 7.71767 206.884 7.88958 206.966 8.08116C207.048 8.27274 207.088 8.47954 207.082 8.68756C207.082 9.11323 206.912 9.52155 206.608 9.82321C206.305 10.1249 205.892 10.2953 205.462 10.2971C205.249 10.3007 205.038 10.2621 204.84 10.1836C204.642 10.1052 204.462 9.98842 204.311 9.84026ZM204.467 15.2665H206.45V35.6991H204.467V15.2665Z" fill="white"/>
<path d="M234.904 15.2665V33.499C234.904 36.8963 234.073 39.4009 232.41 41.0128C230.747 42.6247 228.241 43.4354 224.891 43.4447C223.062 43.4564 221.243 43.1641 219.512 42.5802C217.984 42.105 216.588 41.2871 215.432 40.1904L216.506 38.7074C217.584 39.6768 218.848 40.4225 220.222 40.9003C221.709 41.4263 223.277 41.6904 224.856 41.6805C227.599 41.6805 229.629 41.0339 230.946 39.7406C232.263 38.4473 232.924 36.4464 232.929 33.738V30.2869C232.106 31.7527 230.872 32.9514 229.375 33.738C227.817 34.5591 226.074 34.9751 224.308 34.947C222.479 34.9717 220.674 34.5338 219.064 33.6748C217.526 32.8654 216.246 31.6485 215.368 30.1604C214.486 28.5923 214.023 26.8275 214.023 25.0329C214.023 23.2383 214.486 21.4735 215.368 19.9054C216.244 18.4155 217.524 17.198 219.064 16.3911C220.678 15.5451 222.482 15.1149 224.308 15.1399C226.104 15.1121 227.876 15.543 229.454 16.3911C230.964 17.1882 232.201 18.4115 233.007 19.9054V15.2875L234.904 15.2665ZM228.849 32.1355C230.109 31.4831 231.158 30.4944 231.877 29.2818C232.611 27.9963 232.986 26.5408 232.964 25.0645C232.99 23.5878 232.615 22.1312 231.877 20.8473C231.159 19.6283 230.11 18.6325 228.849 17.9725C227.512 17.267 226.016 16.9091 224.5 16.9323C222.989 16.9065 221.497 17.2647 220.165 17.9725C218.914 18.6374 217.873 19.6326 217.159 20.8473C216.415 22.1292 216.037 23.5867 216.065 25.0645C216.042 26.5418 216.42 27.9982 217.159 29.2818C217.868 30.5059 218.909 31.5091 220.165 32.1776C221.498 32.8823 222.99 33.2402 224.5 33.2179C226.017 33.2309 227.513 32.8659 228.849 32.1565V32.1355Z" fill="white"/>
<path d="M243.254 9.84026C243.101 9.69847 242.979 9.52634 242.897 9.33503C242.815 9.14371 242.774 8.9375 242.778 8.72973C242.78 8.41294 242.876 8.10362 243.053 7.84021C243.231 7.57681 243.484 7.37091 243.779 7.24811C244.074 7.12531 244.399 7.09101 244.714 7.14948C245.029 7.20795 245.32 7.35662 245.55 7.577C245.705 7.71767 245.827 7.88958 245.91 8.08116C245.992 8.27274 246.031 8.47954 246.026 8.68756C246.026 9.11323 245.855 9.52155 245.552 9.82321C245.248 10.1249 244.836 10.2953 244.405 10.2971C244.193 10.2999 243.981 10.2609 243.784 10.1825C243.586 10.1041 243.406 9.98778 243.254 9.84026ZM243.411 15.2665H245.393V35.6991H243.411V15.2665Z" fill="white"/>
<path d="M264.46 34.4058C263.92 34.8972 263.277 35.2644 262.577 35.4812C261.819 35.7333 261.024 35.8592 260.224 35.8537C259.467 35.9023 258.707 35.797 257.992 35.5444C257.277 35.2918 256.622 34.8971 256.067 34.3847C255.559 33.834 255.168 33.1884 254.917 32.4858C254.665 31.7832 254.559 31.0379 254.603 30.2939V16.9393H250.808V15.2594H254.603V10.7962H256.586V15.2594H263.152V16.9393H256.586V30.0971C256.505 31.1919 256.851 32.2757 257.552 33.1265C257.925 33.4881 258.371 33.7676 258.861 33.9469C259.351 34.1262 259.874 34.2011 260.395 34.1668C261.572 34.2084 262.719 33.8007 263.6 33.0281L264.46 34.4058Z" fill="white"/>
<path d="M283.711 17.0447C285.08 18.338 285.767 20.2381 285.772 22.745V35.699H283.875V32.0933C283.219 33.2974 282.211 34.2774 280.982 34.9048C279.573 35.6037 278.01 35.9466 276.434 35.9029C274.487 36.0106 272.562 35.444 270.991 34.3003C270.379 33.7903 269.884 33.1567 269.54 32.442C269.196 31.7274 269.01 30.9482 268.995 30.1568C268.98 29.3654 269.137 28.58 269.454 27.8532C269.771 27.1265 270.242 26.4752 270.834 25.9431C272.057 24.8888 274.018 24.3546 276.711 24.3546H283.818V22.7099C283.873 21.9185 283.763 21.1242 283.494 20.3769C283.225 19.6295 282.803 18.945 282.254 18.3661C281.21 17.3751 279.689 16.883 277.678 16.883C276.333 16.8769 274.999 17.1151 273.741 17.5859C272.564 18 271.477 18.6295 270.536 19.4415L269.548 18.0358C270.635 17.0989 271.898 16.3825 273.265 15.9271C274.728 15.4189 276.269 15.1622 277.82 15.1681C280.378 15.1118 282.34 15.7514 283.711 17.0447ZM281.082 33.0773C282.322 32.2463 283.27 31.0552 283.797 29.6684V25.8377H276.747C274.714 25.8377 273.243 26.2032 272.334 26.9342C271.885 27.2956 271.528 27.7558 271.291 28.2782C271.054 28.8006 270.944 29.3705 270.969 29.9425C270.946 30.5495 271.071 31.153 271.333 31.7022C271.596 32.2515 271.987 32.7303 272.476 33.0984C273.727 33.943 275.228 34.3488 276.74 34.2511C278.272 34.2894 279.782 33.8812 281.082 33.0773Z" fill="white"/>
<path d="M294.492 6.65622H296.474V35.699H294.492V6.65622Z" fill="white"/>
<path d="M25.4342 8.30096V35.7131H20.1683L6.36043 19.0761V35.7131H0.0285645V8.30096H5.32999L19.1023 24.938V8.30096H25.4342Z" fill="#EA1D5D"/>
<path d="M34.31 34.3284C32.0663 33.1638 30.1902 31.4105 28.8877 29.2607C27.6074 27.0504 26.9338 24.5474 26.9338 22C26.9338 19.4527 27.6074 16.9496 28.8877 14.7393C30.1901 12.5876 32.066 10.8319 34.31 9.66454C36.7176 8.45843 39.3785 7.82996 42.0773 7.82996C44.7762 7.82996 47.4371 8.45843 49.8447 9.66454C52.1054 10.8559 53.996 12.6327 55.3144 14.8049C56.6327 16.9771 57.3291 19.463 57.3291 21.9965C57.3291 24.53 56.6327 27.0159 55.3144 29.1881C53.996 31.3603 52.1054 33.1371 49.8447 34.3284C47.4384 35.5389 44.777 36.1699 42.0773 36.1699C39.3777 36.1699 36.7163 35.5389 34.31 34.3284ZM46.5189 29.6543C47.8277 28.9212 48.9052 27.8433 49.6315 26.5406C50.369 25.1382 50.754 23.5807 50.754 22C50.754 20.4193 50.369 18.8618 49.6315 17.4594C48.9073 16.1551 47.8293 15.0767 46.5189 14.3457C45.1601 13.6111 43.6365 13.2262 42.088 13.2262C40.5395 13.2262 39.0159 13.6111 37.6571 14.3457C36.3489 15.0772 35.2733 16.1556 34.5516 17.4594C33.8095 18.8604 33.4218 20.4184 33.4218 22C33.4218 23.5816 33.8095 25.1396 34.5516 26.5406C35.2754 27.8428 36.3505 28.9207 37.6571 29.6543C39.0177 30.3833 40.5406 30.7651 42.088 30.7651C43.6354 30.7651 45.1583 30.3833 46.5189 29.6543Z" fill="#EA1D5D"/>
<path d="M76.9205 35.6991L71.5764 28.0658H65.678V35.6991H59.2822V8.28692H71.2708C73.4655 8.23504 75.646 8.64721 77.6666 9.49586C79.3948 10.2078 80.8612 11.4259 81.8686 12.9865C82.8761 14.5472 83.3763 16.3754 83.3021 18.2256C83.3757 20.0723 82.8685 21.8961 81.8503 23.4457C80.8321 24.9954 79.353 26.1945 77.6169 26.878L83.8351 35.685L76.9205 35.6991ZM75.2931 14.6971C74.2698 13.8771 72.8106 13.4671 70.9155 13.4671H65.6922V23.0192H70.9155C72.839 23.0192 74.3029 22.5998 75.3073 21.761C75.7855 21.3024 76.1656 20.7534 76.4252 20.1467C76.6848 19.54 76.8186 18.8879 76.8186 18.2291C76.8186 17.5703 76.6848 16.9182 76.4252 16.3115C76.1656 15.7048 75.7855 15.1558 75.3073 14.6971H75.2931Z" fill="#EA1D5D"/>
<path d="M111.308 35.6991L111.266 19.2588L103.115 32.7962H100.222L92.1068 19.6032V35.692H86.0947V8.27988H91.3962L101.764 25.3035L111.976 8.27988H117.242L117.321 35.692L111.308 35.6991Z" fill="#EA1D5D"/>
<path d="M140.161 29.83H127.298L124.839 35.699H118.273L130.617 8.2869H136.949L149.342 35.699H142.613L140.161 29.83ZM138.143 25.0153L133.744 14.5214L129.352 25.0153H138.143Z" fill="#EA1D5D"/>
<path d="M160.343 24.938L156.619 28.7687V35.699H150.224V8.2869H156.619V21.0863L168.892 8.2869H175.999L164.522 20.4958L174.67 33.1968L173.369 35.699H169.191L160.343 24.938Z" fill="#EA1D5D"/>
<path d="M185.33 0H187.149L171.515 44H169.695L185.33 0Z" fill="#EA1D5D"/>
<path d="M307.912 31.2376L318.003 21.2576L314.445 17.7388L304.355 27.7187L307.912 31.2376Z" fill="#EA1D5D"/>
<path d="M304.353 14.8L314.443 24.7799L318.001 21.2611L307.911 11.2812L304.353 14.8Z" fill="#EA1D5D"/>
</g>
<defs>
<clipPath id="clip0_378_3274">
<rect width="318" height="44" fill="white"/>
</clipPath>
</defs>
</svg>
