<svg width="448" height="63" viewBox="0 0 448 63" fill="none" xmlns="http://www.w3.org/2000/svg">
<g clip-path="url(#clip0_378_3383)">
<g style="mix-blend-mode:darken">
<g style="mix-blend-mode:darken">
<path d="M271.79 9.47021V28.4702C270.662 26.3468 268.974 24.5727 266.91 23.3402C264.788 22.1023 262.367 21.4694 259.91 21.5102C258.096 21.4972 256.294 21.8087 254.59 22.4302C254.702 23.2534 254.547 24.0907 254.15 24.8202C253.95 25.2002 253.75 25.5802 253.53 25.9602C253.72 25.8302 253.89 25.6902 254.09 25.5702C255.923 24.5437 257.989 24.0046 260.09 24.0046C262.191 24.0046 264.257 24.5437 266.09 25.5702C267.849 26.6105 269.291 28.1111 270.26 29.9102C271.272 31.8739 271.8 34.0511 271.8 36.2602C271.8 38.4694 271.272 40.6465 270.26 42.6102C269.294 44.4142 267.852 45.9188 266.09 46.9602C264.257 47.9868 262.191 48.5258 260.09 48.5258C257.989 48.5258 255.923 47.9868 254.09 46.9602C252.328 45.9188 250.886 44.4142 249.92 42.6102C249.364 41.605 248.96 40.5234 248.72 39.4002C248.21 40.4198 247.454 41.2962 246.52 41.9502C247.624 44.9688 249.745 47.508 252.52 49.1302C254.758 50.4029 257.295 51.0553 259.87 51.0202C262.354 51.063 264.802 50.4267 266.95 49.1802C269.039 47.9461 270.721 46.1282 271.79 43.9502V50.8102H274.52V9.47021H271.79Z" fill="black"/>
</g>
<g style="mix-blend-mode:darken">
<path d="M287.5 14.0104C287.284 13.8087 287.112 13.5638 286.997 13.2916C286.882 13.0194 286.825 12.726 286.83 12.4304C286.835 11.9809 286.971 11.5426 287.221 11.1693C287.472 10.7959 287.826 10.5037 288.24 10.3286C288.654 10.1534 289.11 10.1029 289.552 10.1831C289.995 10.2634 290.404 10.471 290.73 10.7804C290.947 10.9833 291.119 11.2298 291.235 11.5038C291.35 11.7778 291.407 12.0732 291.4 12.3704C291.401 12.6702 291.343 12.9673 291.229 13.2445C291.115 13.5217 290.947 13.7736 290.735 13.9856C290.523 14.1976 290.271 14.3654 289.994 14.4796C289.717 14.5937 289.42 14.6518 289.12 14.6504C288.821 14.6573 288.523 14.6043 288.245 14.4943C287.967 14.3844 287.714 14.2199 287.5 14.0104ZM287.72 21.7304H290.51V50.8104H287.72V21.7304Z" fill="black"/>
</g>
<g style="mix-blend-mode:darken">
<path d="M330.55 21.7304V47.6804C330.55 52.5137 329.38 56.0771 327.04 58.3704C324.7 60.6637 321.173 61.8104 316.46 61.8104C313.886 61.827 311.327 61.4112 308.89 60.5804C306.742 59.9003 304.778 58.7372 303.15 57.1804L304.66 55.0704C306.18 56.4462 307.957 57.5067 309.89 58.1904C311.982 58.9387 314.188 59.3144 316.41 59.3004C320.27 59.3004 323.127 58.3804 324.98 56.5404C326.833 54.7004 327.77 51.8571 327.79 48.0104V43.1104C326.633 45.1932 324.896 46.8954 322.79 48.0104C320.6 49.1862 318.145 49.7818 315.66 49.7404C313.086 49.7756 310.546 49.1525 308.28 47.9304C306.118 46.7763 304.318 45.0456 303.08 42.9304C301.838 40.6995 301.187 38.1886 301.187 35.6354C301.187 33.0822 301.838 30.5713 303.08 28.3404C304.312 26.2206 306.113 24.4884 308.28 23.3404C310.551 22.1369 313.089 21.5247 315.66 21.5604C318.186 21.5208 320.68 22.1339 322.9 23.3404C325.025 24.4745 326.766 26.2149 327.9 28.3404V21.7704L330.55 21.7304ZM322.03 45.7304C323.81 44.786 325.287 43.3578 326.29 41.6104C327.323 39.7815 327.851 37.7107 327.82 35.6104C327.857 33.5094 327.329 31.4371 326.29 29.6104C325.28 27.8761 323.804 26.4593 322.03 25.5204C320.148 24.5167 318.042 24.0074 315.91 24.0404C313.783 24.0038 311.683 24.5133 309.81 25.5204C308.049 26.4664 306.585 27.8822 305.58 29.6104C304.533 31.4342 304.001 33.5079 304.04 35.6104C304.007 37.7121 304.539 39.7841 305.58 41.6104C306.56 43.3787 308.019 44.8346 309.79 45.8104C311.666 46.8094 313.765 47.3152 315.89 47.2804C318.028 47.315 320.14 46.8094 322.03 45.8104V45.7304Z" fill="black"/>
</g>
<g style="mix-blend-mode:darken">
<path d="M342.3 14.0104C342.084 13.8087 341.912 13.5638 341.797 13.2916C341.682 13.0194 341.625 12.726 341.63 12.4304C341.635 11.9809 341.771 11.5426 342.021 11.1693C342.272 10.7959 342.626 10.5037 343.04 10.3286C343.454 10.1534 343.91 10.1029 344.352 10.1831C344.795 10.2634 345.204 10.471 345.53 10.7804C345.747 10.9833 345.919 11.2298 346.035 11.5038C346.15 11.7778 346.207 12.0732 346.2 12.3704C346.201 12.6702 346.143 12.9673 346.029 13.2445C345.915 13.5217 345.747 13.7736 345.535 13.9856C345.323 14.1976 345.071 14.3654 344.794 14.4796C344.517 14.5937 344.22 14.6518 343.92 14.6504C343.621 14.6562 343.324 14.6026 343.046 14.4928C342.768 14.3829 342.514 14.219 342.3 14.0104ZM342.52 21.7304H345.31V50.8104H342.52V21.7304Z" fill="black"/>
</g>
<g style="mix-blend-mode:darken">
<path d="M372.14 48.9601C371.38 49.6593 370.475 50.1818 369.49 50.4901C368.424 50.8488 367.305 51.0279 366.18 51.0201C365.114 51.0893 364.045 50.9395 363.039 50.5801C362.033 50.2207 361.111 49.6591 360.33 48.9301C359.615 48.1467 359.065 47.2281 358.711 46.2285C358.357 45.229 358.207 44.1686 358.27 43.1101V24.1101H352.93V21.7201H358.27V15.3701H361.06V21.7201H370.3V24.1101H361.06V42.8101C360.947 44.3677 361.433 45.9096 362.42 47.1201C362.945 47.6345 363.573 48.0322 364.262 48.2873C364.951 48.5423 365.687 48.6489 366.42 48.6001C368.076 48.6594 369.69 48.0793 370.93 46.9801L372.14 48.9601Z" fill="black"/>
</g>
<g style="mix-blend-mode:darken">
<path d="M399.23 24.2604C401.157 26.1004 402.123 28.8038 402.13 32.3704V50.8104H399.46V45.6304C398.538 47.3436 397.119 48.7379 395.39 49.6304C393.407 50.6248 391.208 51.1126 388.99 51.0504C386.249 51.2037 383.541 50.3975 381.33 48.7704C380.469 48.0447 379.773 47.1433 379.288 46.1266C378.804 45.1099 378.543 44.0013 378.522 42.8753C378.501 41.7493 378.721 40.6319 379.168 39.598C379.614 38.564 380.276 37.6375 381.11 36.8804C382.83 35.3671 385.587 34.6138 389.38 34.6204H399.38V32.2804C399.458 31.1544 399.303 30.0245 398.924 28.9611C398.545 27.8978 397.952 26.924 397.18 26.1004C395.71 24.6904 393.57 23.9904 390.74 23.9904C388.848 23.9817 386.97 24.3206 385.2 24.9904C383.553 25.592 382.033 26.4977 380.72 27.6604L379.33 25.6604C380.858 24.3241 382.635 23.3044 384.56 22.6604C386.619 21.9374 388.787 21.5721 390.97 21.5804C394.54 21.5104 397.3 22.4204 399.23 24.2604ZM395.53 47.0704C397.272 45.8857 398.606 44.1919 399.35 42.2204V36.8104H389.43C386.57 36.8104 384.5 37.3404 383.22 38.3704C382.587 38.8861 382.084 39.5427 381.751 40.2876C381.418 41.0325 381.263 41.8451 381.3 42.6604C381.268 43.524 381.443 44.3827 381.812 45.1641C382.181 45.9455 382.733 46.6268 383.42 47.1504C385.181 48.352 387.293 48.9294 389.42 48.7904C391.581 48.8299 393.707 48.2317 395.53 47.0704Z" fill="black"/>
</g>
<g style="mix-blend-mode:darken">
<path d="M414.4 9.47021H417.19V50.8102H414.4V9.47021Z" fill="black"/>
</g>
</g>
<path d="M35.79 11.8101V50.8101H28.38L8.95004 27.14V50.8101H0.0400391V11.8101H7.50005L26.88 35.4801V11.8101H35.79Z" fill="#EA1D5D"/>
<path d="M48.2801 48.81C45.1228 47.1531 42.4829 44.6585 40.6501 41.6C38.8485 38.4554 37.9006 34.8942 37.9006 31.27C37.9006 27.6458 38.8485 24.0847 40.6501 20.94C42.4827 17.8788 45.1224 15.3809 48.2801 13.72C51.6681 12.004 55.4124 11.1099 59.2101 11.1099C63.0078 11.1099 66.7522 12.004 70.1401 13.72C73.3213 15.4149 75.9817 17.9429 77.8369 21.0333C79.692 24.1238 80.672 27.6605 80.672 31.265C80.672 34.8695 79.692 38.4062 77.8369 41.4966C75.9817 44.5871 73.3213 47.1151 70.1401 48.81C66.7541 50.5322 63.009 51.4298 59.2101 51.4298C55.4113 51.4298 51.6662 50.5322 48.2801 48.81ZM65.4601 42.15C67.3034 41.1135 68.8204 39.5826 69.8401 37.73C70.8778 35.7348 71.4196 33.5189 71.4196 31.27C71.4196 29.021 70.8778 26.8052 69.8401 24.81C68.821 22.9544 67.3041 21.4201 65.4601 20.38C63.5481 19.3349 61.4041 18.7872 59.2251 18.7872C57.0461 18.7872 54.9021 19.3349 52.9901 20.38C51.1492 21.4207 49.6356 22.9551 48.6201 24.81C47.5759 26.8032 47.0303 29.0198 47.0303 31.27C47.0303 33.5202 47.5759 35.7368 48.6201 37.73C49.6358 39.5822 51.1496 41.1133 52.9901 42.15C54.9021 43.1951 57.0461 43.7428 59.2251 43.7428C61.4041 43.7428 63.5481 43.1951 65.4601 42.15Z" fill="#EA1D5D"/>
<path d="M108.24 50.8099L100.72 39.9499H92.4199V50.8099H83.4199V11.8099H100.29C103.379 11.7392 106.447 12.3291 109.29 13.5399C111.722 14.5527 113.785 16.2858 115.203 18.5062C116.62 20.7265 117.324 23.3276 117.22 25.9599C117.324 28.5872 116.61 31.182 115.177 33.3867C113.744 35.5915 111.663 37.2975 109.22 38.2699L117.93 50.8099H108.24ZM105.95 20.9299C104.537 19.7632 102.477 19.1799 99.7699 19.1799H92.4199V32.7599H99.7899C102.497 32.7599 104.557 32.1666 105.97 30.9799C106.643 30.3273 107.178 29.5463 107.543 28.6831C107.908 27.8199 108.097 26.8922 108.097 25.9549C108.097 25.0176 107.908 24.0898 107.543 23.2266C107.178 22.3634 106.643 21.5824 105.97 20.9299H105.95Z" fill="#EA1D5D"/>
<path d="M156.63 50.8101L156.57 27.42L145.1 46.6901H141.03L129.61 27.9101V50.8101H121.15V11.8101H128.61L143.2 36.0401L157.57 11.8101H164.98L165.09 50.8101H156.63Z" fill="#EA1D5D"/>
<path d="M197.23 42.4501H179.13L175.67 50.8101H166.43L183.79 11.8101H192.7L210.14 50.8101H200.67L197.23 42.4501ZM194.39 35.6001L188.2 20.67L182.02 35.6001H194.39Z" fill="#EA1D5D"/>
<path d="M225.63 35.4801L220.39 40.9401V50.8101H211.39V11.8101H220.39V30.0301L237.66 11.8101H247.66L231.51 29.1901L245.79 47.1901L243.98 50.8101H238.1L225.63 35.4801Z" fill="#EA1D5D"/>
<path d="M260.79 0H263.35L241.35 62.61H238.79L260.79 0Z" fill="#EA1D5D"/>
<path d="M433.28 44.4375L447.479 30.2388L442.473 25.2324L428.274 39.4312L433.28 44.4375Z" fill="#EA1D5D"/>
<path d="M428.281 21.0513L442.48 35.25L447.486 30.2437L433.287 16.045L428.281 21.0513Z" fill="#EA1D5D"/>
</g>
<defs>
<clipPath id="clip0_378_3383">
<rect width="447.48" height="62.6" fill="white"/>
</clipPath>
</defs>
</svg>
