<svg width="52" height="52" viewBox="0 0 52 52" fill="none" xmlns="http://www.w3.org/2000/svg">
<path d="M26 33C29.866 33 33 29.866 33 26C33 22.134 29.866 19 26 19C22.134 19 19 22.134 19 26C19 29.866 22.134 33 26 33Z" stroke="#24262A" stroke-width="3" stroke-linecap="round" stroke-linejoin="round"/>
<path d="M42.1455 32.5455C41.855 33.2035 41.7684 33.9335 41.8967 34.6413C42.0251 35.3491 42.3625 36.0022 42.8655 36.5164L42.9964 36.6473C43.4021 37.0525 43.7239 37.5338 43.9435 38.0635C44.1631 38.5933 44.2762 39.1611 44.2762 39.7345C44.2762 40.308 44.1631 40.8758 43.9435 41.4056C43.7239 41.9353 43.4021 42.4166 42.9964 42.8218C42.5911 43.2275 42.1098 43.5494 41.5801 43.769C41.0504 43.9886 40.4825 44.1016 39.9091 44.1016C39.3356 44.1016 38.7678 43.9886 38.2381 43.769C37.7083 43.5494 37.2271 43.2275 36.8218 42.8218L36.6909 42.6909C36.1767 42.1879 35.5236 41.8505 34.8158 41.7222C34.1081 41.5938 33.3781 41.6805 32.72 41.9709C32.0747 42.2475 31.5243 42.7067 31.1367 43.2921C30.749 43.8774 30.541 44.5634 30.5382 45.2655V45.6364C30.5382 46.7937 30.0784 47.9036 29.2601 48.7219C28.4418 49.5403 27.3319 50 26.1745 50C25.0172 50 23.9073 49.5403 23.089 48.7219C22.2706 47.9036 21.8109 46.7937 21.8109 45.6364V45.44C21.794 44.7178 21.5603 44.0174 21.14 43.4299C20.7198 42.8423 20.1325 42.3948 19.4545 42.1455C18.7965 41.855 18.0665 41.7684 17.3587 41.8967C16.6509 42.0251 15.9978 42.3625 15.4836 42.8655L15.3527 42.9964C14.9475 43.4021 14.4662 43.7239 13.9365 43.9435C13.4067 44.1631 12.8389 44.2762 12.2655 44.2762C11.692 44.2762 11.1242 44.1631 10.5944 43.9435C10.0647 43.7239 9.58345 43.4021 9.17818 42.9964C8.77247 42.5911 8.45061 42.1098 8.23101 41.5801C8.01142 41.0504 7.89839 40.4825 7.89839 39.9091C7.89839 39.3356 8.01142 38.7678 8.23101 38.2381C8.45061 37.7083 8.77247 37.2271 9.17818 36.8218L9.30909 36.6909C9.81208 36.1767 10.1495 35.5236 10.2778 34.8158C10.4062 34.1081 10.3195 33.3781 10.0291 32.72C9.75252 32.0747 9.29328 31.5243 8.70792 31.1367C8.12256 30.749 7.43663 30.541 6.73455 30.5382H6.36364C5.20633 30.5382 4.09642 30.0784 3.27808 29.2601C2.45974 28.4418 2 27.3319 2 26.1745C2 25.0172 2.45974 23.9073 3.27808 23.089C4.09642 22.2706 5.20633 21.8109 6.36364 21.8109H6.56C7.28217 21.794 7.98256 21.5603 8.57011 21.14C9.15766 20.7198 9.6052 20.1325 9.85455 19.4545C10.145 18.7965 10.2316 18.0665 10.1033 17.3587C9.97495 16.6509 9.63754 15.9978 9.13455 15.4836L9.00364 15.3527C8.59792 14.9475 8.27606 14.4662 8.05647 13.9365C7.83687 13.4067 7.72384 12.8389 7.72384 12.2655C7.72384 11.692 7.83687 11.1242 8.05647 10.5944C8.27606 10.0647 8.59792 9.58345 9.00364 9.17818C9.4089 8.77247 9.89016 8.45061 10.4199 8.23101C10.9496 8.01142 11.5175 7.89839 12.0909 7.89839C12.6644 7.89839 13.2322 8.01142 13.7619 8.23101C14.2917 8.45061 14.7729 8.77247 15.1782 9.17818L15.3091 9.30909C15.8233 9.81208 16.4764 10.1495 17.1842 10.2778C17.8919 10.4062 18.6219 10.3195 19.28 10.0291H19.4545C20.0999 9.75252 20.6502 9.29328 21.0379 8.70792C21.4255 8.12256 21.6336 7.43663 21.6364 6.73455V6.36364C21.6364 5.20633 22.0961 4.09642 22.9144 3.27808C23.7328 2.45974 24.8427 2 26 2C27.1573 2 28.2672 2.45974 29.0856 3.27808C29.9039 4.09642 30.3636 5.20633 30.3636 6.36364V6.56C30.3664 7.26208 30.5745 7.94802 30.9621 8.53338C31.3498 9.11874 31.9001 9.57797 32.5455 9.85455C33.2035 10.145 33.9335 10.2316 34.6413 10.1033C35.3491 9.97495 36.0022 9.63754 36.5164 9.13455L36.6473 9.00364C37.0525 8.59792 37.5338 8.27606 38.0635 8.05647C38.5933 7.83687 39.1611 7.72384 39.7345 7.72384C40.308 7.72384 40.8758 7.83687 41.4056 8.05647C41.9353 8.27606 42.4166 8.59792 42.8218 9.00364C43.2275 9.4089 43.5494 9.89016 43.769 10.4199C43.9886 10.9496 44.1016 11.5175 44.1016 12.0909C44.1016 12.6644 43.9886 13.2322 43.769 13.7619C43.5494 14.2917 43.2275 14.7729 42.8218 15.1782L42.6909 15.3091C42.1879 15.8233 41.8505 16.4764 41.7222 17.1842C41.5938 17.8919 41.6805 18.6219 41.9709 19.28V19.4545C42.2475 20.0999 42.7067 20.6502 43.2921 21.0379C43.8774 21.4255 44.5634 21.6336 45.2655 21.6364H45.6364C46.7937 21.6364 47.9036 22.0961 48.7219 22.9144C49.5403 23.7328 50 24.8427 50 26C50 27.1573 49.5403 28.2672 48.7219 29.0856C47.9036 29.9039 46.7937 30.3636 45.6364 30.3636H45.44C44.7379 30.3664 44.052 30.5745 43.4666 30.9621C42.8813 31.3498 42.422 31.9001 42.1455 32.5455V32.5455Z" stroke="#24262A" stroke-width="3" stroke-linecap="round" stroke-linejoin="round"/>
</svg>
