<svg width="58" height="55" viewBox="0 0 58 55" fill="none" xmlns="http://www.w3.org/2000/svg">
<path d="M53.2739 2L47.8573 7.33333M47.8573 7.33333L55.9823 15.3333L46.5031 24.6667L38.3781 16.6667M47.8573 7.33333L38.3781 16.6667M27.2469 27.6267C28.6453 28.9852 29.7569 30.6028 30.5179 32.3861C31.2788 34.1694 31.6739 36.0834 31.6805 38.0177C31.6871 39.952 31.305 41.8685 30.5562 43.6568C29.8074 45.4451 28.7068 47.0699 27.3177 48.4377C25.9285 49.8055 24.2783 50.8892 22.462 51.6264C20.6458 52.3637 18.6994 52.7399 16.7348 52.7334C14.7703 52.7269 12.8265 52.3379 11.0152 51.5887C9.20404 50.8395 7.56124 49.7449 6.18144 48.368C3.46804 45.6018 1.96662 41.897 2.00056 38.0515C2.0345 34.2059 3.60108 30.5273 6.36289 27.808C9.1247 25.0887 12.8608 23.5462 16.7664 23.5128C20.672 23.4794 24.4348 24.9577 27.2441 27.6293L27.2469 27.6267ZM27.2469 27.6267L38.3781 16.6667" stroke="#24262A" stroke-width="3" stroke-linecap="round" stroke-linejoin="round"/>
</svg>
